<svg xmlns="http://www.w3.org/2000/svg" viewBox="0 0 490.18 138.72"><g id="Capa_2" data-name="Capa 2"><g id="Capa_1-2" data-name="Capa 1"><path d="M193.36,50c.19-3.21-.7-6.39.6-9.41.64-1.49,1.64-3.52,3.57-2.53,2.1,1.09.59,2.51-.26,4-2.6,4.67.24,8.08,3.83,12.35,0-2.29-.11-3.65,0-5s.55-2.88,2.36-2.49c1.64.35,1.82,1.78,1.43,3.21s-1.25,2.73-.7,5.11a33.77,33.77,0,0,1,2.57-4.77c1.11-1.43,2.75-2,4.35-.64,2,1.7.11,2.44-1,3.39-1.69,1.48-3.1,3.38-2.44,5.6s3.07,2.17,5.06,2.43c2.79.36,5.57.86,8.36,1.19,1.37.17,3.28-1,3.85,1.07.48,1.77.28,4-1.66,4.82-5.88,2.53-3.52,5.15-.23,7.77,5.75,4.59,10.23,10,11.77,17.43.44,2.14,2.05,2.51,3.64,2.8a109.38,109.38,0,0,0,67.66-9.12c2.32-1.11,2.39-2.07.94-4.06-1.23-1.69-2.63-4-.54-5.84,1.9-1.64,3.51.7,5.29,1.22a173.47,173.47,0,0,0,20.17,5c3.26.54,5.62-1.8,5.55-5.56-.13-7.46-4.85-12.93-8.28-18.95a1.69,1.69,0,0,0-1.21-.7c-4.45-.24-5.53-1.4-5.36-5.6.09-2.17-1.34-2.5-3-1.91a8.57,8.57,0,0,0-5.48,6c-.69,2.39-1.36,4.8-2.24,7.12-.71,1.87-1.66,3.74-3.93,4.14a2.24,2.24,0,0,1-2.37-1.47c-1.32-2.7,1.88-3,2.83-4.72-1.86-1.09-2.53.39-3.39,1.12a12.38,12.38,0,0,1-15.59.15c-1.48-1.24-2.92-2.75-1.16-4.57s2.9-.39,3.8,1.26A4.46,4.46,0,0,0,296,62c1.31.15,2.94.52,3.56-.91.73-1.69-1-2.14-2.1-2.8a14.91,14.91,0,0,1-1.66-1.1,3,3,0,0,1-1.07-3.55,1.88,1.88,0,0,1,1.92-1.32c1.35.06,2,1.09,2.35,2.26,1.13,3.79,4,3.36,6.87,2.79.91-.18,2-.86,1.85-2a2.91,2.91,0,0,0-1.55-1.73c-2.85-1.34-5.72-2.38-7.27-5.63-.78-1.64-3.08-.41-4.67-.67s-3-1.07-2.74-2.86c.35-2.26,1.83-1.79,3.37-1,2.29,1.19,4.42.71,7.09-1.37C296.49,40,292.2,37,290,31.86a38.15,38.15,0,0,1-1.52-3.69c-.43-1.41-1-3.35.79-3.91,2.33-.73,2,1.69,2.23,2.9.85,4.36,3.08,7.59,8,10.37-1.5-3.44-2.77-5.83-3.58-8.37-.5-1.59-1.28-4.09,1.4-4.44,2.36-.31,1.22,2.1,1.68,3.32,1.59,4.21,2.11,9.27,8.22,10.79-1.06-3.28-2.08-6.2-2.93-9.16-.46-1.63-.74-3.9,1.23-4.25,2.65-.46,1.78,2,1.92,3.52a13.49,13.49,0,0,0,4.68,9c-.29-4-1.81-7.17-.66-10.33.64-1.79,1.42-4,3.64-3,2,.9.79,2.51-.17,4.08-2,3.25-.07,7.55,4.53,10.86,0-1.23,0-2.34,0-3.44,0-1.5-.11-3.43,2.12-3.09,2,.3,1.66,2.15,1.49,3.66s-1.42,2.72,0,4.5a35.06,35.06,0,0,1,2.08-4.89c1-1.61,2.68-2.2,4.29-.94,1.86,1.47.39,2.4-.75,3.51-1.58,1.52-3,3.47-2,5.71.94,2.06,3.19,2.06,5.24,2.09,2.82,0,5.63.22,8.44.34,1.35.06,3.25-1.22,3.79.94.43,1.71.7,4-1.25,5-5.8,3-3,5.47.46,7.71,6.37,4.15,11.12,9.51,13.18,17,.65,2.36,2.18,3,4.43,3.12a110.25,110.25,0,0,0,65.08-17.24c2.12-1.33,3-2.32.66-4.38-1.59-1.42-3.18-3.66-1.53-5.7,1.51-1.85,3.57.07,5.44.32a179.1,179.1,0,0,0,21.17,1.84c3.14,0,4.77-2.74,4.22-6.15-1.18-7.38-6.7-12.08-10.94-17.57a1.69,1.69,0,0,0-1.29-.54c-4.63.38-4.53.37-6.15-5.05-.59-2-2.34-1.61-3.66-.78a8.14,8.14,0,0,0-4,6.58,29,29,0,0,1-1.95,9.25c-.6,1.4-1.45,2.79-3.22,2.67a3,3,0,0,1-2-1.25c-1.11-1.7.12-2.72,1.32-3.74.28-.24.29-.78.49-1.35-2.27,0-2.72,1.9-3.82,3-3.43,3.36-11.7,3.7-15.32.61-1.26-1.07-2.17-2.34-.9-3.83s2.66-1.1,3.69.44a4.58,4.58,0,0,0,4.32,2c1.38,0,3-.07,3.41-1.48.48-1.74-1.35-2-2.51-2.49a16.51,16.51,0,0,1-1.82-.81c-1.18-.75-2.18-1.75-1.67-3.26a2.86,2.86,0,0,1,1.62-1.68c1.65-.43,2.25.93,2.9,2.13,1.68,3.13,4.29,2.57,6.92,1.58a2.51,2.51,0,0,0,1.87-2.14c0-1.2-1.17-1.71-2.09-1.75-5.08-.21-8-6.44-13.91-4.72-1.31.38-2.2-1.35-1.71-2.89s1.53-1.51,2.8-.89c2.67,1.31,4.71.12,7.32-2-5.57-1.61-10.36-3.49-13.24-8.19-.7-1.14-1.51-2.21-2.13-3.38-.79-1.49-1.68-3.72,0-4.49,2.25-1.05,2.4,1.62,2.91,3,1.49,4.15,4.21,6.89,9.53,8.83-2.12-3.68-4.52-5.85-5.46-8.83-.48-1.51-.84-3.25,1.07-3.76,2.07-.54,1.43,1.6,2,2.61,2.26,4,3.24,9.26,9.86,9.85-1.61-3.24-3.14-5.93-4.3-8.78-.58-1.42-1.27-3.66,1.06-4.13,2.08-.42,1.94,1.66,2.18,3.12.53,3.26,2.29,5.73,5.77,8.4-.85-3.93-2.64-6.71-2.17-9.81.27-1.8.69-4.22,3-3.79s1,2.36.64,3.94c-1.11,5,1.82,8,5.7,10.5,1.05-1.29,0-2.26-.16-3.27-.22-1.31-.76-2.71.69-3.6a2.08,2.08,0,0,1,1.82,0c1.28.84,1.35,2.2,1.08,3.57s-.51,2.9.69,4.39a36,36,0,0,1,1.59-5.76,2.68,2.68,0,0,1,4.19-1.19c1.87,1.21.37,2.17-.37,3.2-1.41,2-2.57,4.2-1.06,6.43,1.3,1.92,3.51,1.31,5.52,1,3.26-.58,6.67.24,9.85-1.24a1.62,1.62,0,0,1,2.42,1A5.36,5.36,0,0,1,458,23.8c-3.46,5.06-3.58,5.38,2.11,8.13,8.86,4.27,14.62,10.85,16.7,20.47.56,2.61,1.65,3,3.78,1.75a23.4,23.4,0,0,1,3.15-1.52c4.82-1.84,7.17-.08,6.27,5.07-.95,5.41-2.34,10.74-3.62,16.08-.33,1.35-.37,3.49-2.39,3.13s-1.24-2.37-1.31-3.79c0-.45-.09-.9-.15-1.4-2.2.72-1.83,5.3-5,3.68-2.36-1.22-1.69-4-1-5.79-9.81-.77-18.82,6.88-29.23,2.67a6.06,6.06,0,0,0-7.19,2.09C438,77,435,78,431.79,78.47A10.57,10.57,0,0,0,424,84c-3,5.17-6.14,10.31-9.49,15.27-1.15,1.69-3,4.93-5.31,2.44-1.71-1.82-1.16-5.24,1.41-7,3.84-2.69,6-6.53,8.4-10.92-2.29-.15-2.87,1.43-3.67,2.41-3.16,3.87-6.19,7.84-9.32,11.73-.93,1.16-2.09,2.56-3.73,1.65-1.84-1-1.3-2.85-.71-4.46a4,4,0,0,1,1-1.71c7.87-6.4,12-16.44,21.29-21.53a7.66,7.66,0,0,0,4.39-6.71c-1.26-.67-1.94.33-2.72.8-19.17,11.57-39.88,17.3-62.33,16.48-1.17-.05-2.34-.07-3.5-.06-2,0-2,1.47-1.81,2.82.22,1.63,1.32,1.59,2.62,1.22,3.09-.86,6.71-3.48,9.23-.18,2.4,3.14-.43,6.65-1.53,9.86s-2.52,6.52-3.89,9.74c-.62,1.44-.89,3.87-2.92,3.42-2.31-.52-1-2.69-.86-4.24a3.92,3.92,0,0,0-.24-1.06c-.42.3-.79.54-1.14.8-1.35,1-2.31,4.29-4.47,1.46-1.6-2.09-.86-4.51,1.55-6,1.37-.83,3.17-1.09,3.68-3.89-4.54,4.46-9.5,5.27-14.92,4a1.67,1.67,0,0,0-1,0c-6.83,3.18-13.22,1.13-19.61-1.54-1-.42-2.71-.71-3.36-.18-4.65,3.81-10.24,4.27-15.83,5.26-2.73.48-4.36,3.44-6.17,5.61-3.1,3.7-6.12,7.48-9.3,11.12-1.4,1.6-3,3.36-5.36,3.17-1-.08-1.44-1.36-1.28-2.42.36-2.31.81-4.45,3.42-5.61,4.07-1.83,6.4-5.54,8.19-9.81-4,3.69-8.05,7.42-12.16,11-1.61,1.42-3.45,4.71-5.55,2.47-2.51-2.68.23-5.23,2.54-6.93a115.14,115.14,0,0,0,13.67-11.66,21.15,21.15,0,0,1,7.61-4.64C304,95,306.86,93.14,308,88.55c-9.06,3.84-17.54,7.11-26.5,8.94a107.76,107.76,0,0,1-40.69,1c-.82-.15-1.66-.19-2.48-.3-1-.13-2.14-.55-2.44.84s-.93,2.63,0,3.85c.77,1,1.82.35,2.77.19,3-.51,6.53-2.55,8.83.63s-.73,6-1.84,8.77a104.61,104.61,0,0,1-4.78,9.89c-.81,1.54-1.35,4.27-3.37,3.77-2.87-.7-.19-3.45-.94-5.16-4.43,3.49-4.46,3.5-5.86-2.53-.17-.73-.31-1.34-1.1-1.32-4.15.08-8.2-2.26-12.35-.78-4,1.42-7.45.66-11-1.39-4.18-2.46-8.39-4-12.91-.34a8.31,8.31,0,0,1-6.25,1.31c-5.33-.74-8.76,2-12,5.6q-5.22,5.72-10.87,11c-1.35,1.27-3.19,3.19-5.21,1.57-1.75-1.41-.27-3.38.25-5.08a7,7,0,0,0,.15-1.29c-1.13-.37-1.7.35-2.33.8-1.58,1.13-3.4,3.19-5,.87-1.24-1.77,0-4.23,1.79-5.18,9.11-4.77,15.53-13.73,25.95-16.85-27.86,3.8-53.93-2.7-79.46-13.83,0,3.08.11,5.56,0,8-.51,9.85-4.75,14.52-14.43,15.79-1.72.23-2.71.38-2.58,2.58.62,10.16,9.16,16.66,18.64,14,7.73-2.16,10.61-9.75,6.24-16.46-1.54-2.36-3.61-4.37-4.53-7.14-.8-2.42-.7-4.62,1.45-6.31,1.19-.94,2.59-1.91,4.06-.81,1.7,1.27,1,2.59-.43,3.64s-1,2.3-.21,3.48c1.13,1.64,2.39,3.2,3.48,4.87,6.28,9.55,1,21.4-10.33,23.22-5.26.85-10.29-.39-15.32-1.47Q49.64,129.11,13,121.12a31.11,31.11,0,0,1-6.68-2c-7.06-3.32-8.55-13-2.9-18,4.31-3.8,11.43-2.33,12.87,2.64.35,1.21.46,2.36-.68,3.13a1.78,1.78,0,0,1-2.62-.57c-1.25-1.89-2.51-3.85-5.14-2.71-2.36,1-3.36,3.24-3.41,5.71a6,6,0,0,0,3.9,5.88A13.68,13.68,0,0,0,23,113.61a34.51,34.51,0,0,0,3.52-3.53c3-3.06,2.72-5-1.61-6.6-6.17-2.25-8.9-7.2-9.11-13.61-.18-5.66.28-11.39-1.13-16.91-.68-2.64.49-6.72-4.5-6.93-1.26,0-.77-2-.6-3.07.56-3.54,2.82-5.6,6.2-6.34,4.29-.94,8,.18,10.58,3.84,2.08,3,3.88,6.12,6.27,9.15-.49-3.51-2.38-7.38,3.36-8.07.6-.07-.32-.36-.46-.44-2.24-1.17-2.42-2.75-.59-4.3,1.65-1.38,3.93-2,5.2.12,1.52,2.54,2.67,2,4.75.79,2.36-1.32,5.19-2.43,4.84,2.55-.07,1,1.64,2.27,2.79,3s2.07,1.55,1.33,3.17c-.36.79-1.28,2,.35,2.33.87.19,2.35,0,2.76-.56,1.52-2.11,3.76-4.46,3.14-7-.71-2.88-2.29-6.14-5.45-7.14-2.83-.89-5.35-2.77-8.49-2.73a2.49,2.49,0,0,1-2.63-2.48A2.55,2.55,0,0,1,45,46a2.82,2.82,0,0,1,3.63.73c3.09,4.25,5.57,2.07,8-.7,1.2-1.38,2.19-3,3.49-4.23,3.54-3.46,9.35-4.61,13.38-2.09s7.88,5.44,6.74,11.38c-.5,2.68,2.82,5.49-.22,8.42-.43.41,1.58,1.88,3.06,1.44,2.54-.77,5.1-1.54,7.56-2.52,3.18-1.25,5.74-1.73,6.72,2.7.25,1.11,1.54,2.1,2.52,2.94,22.1,18.82,46.71,32.38,75.94,36.29,1.15.16,2.31.31,3.47.38,7.23.44,7.23.44,5.26-6.48-.42-1.47-1-3.11.47-4.17,1.6-1.19,3,0,4.52.8,6.24,3.47,13.24,5,20,7.06,3.65,1.12,6.42-1.08,6.54-5.41.22-7.23-3.86-13-6.7-19.1a2.36,2.36,0,0,0-1.07-.88c-4.09,3.92-3.65-1.91-5.57-2.62a1.17,1.17,0,0,1-.42-2c.72-.85,2-1.54.61-2.82-1.19-1.1-2.41-.72-3.7-.12a8.69,8.69,0,0,0-4.94,5.92,24.57,24.57,0,0,1-3.5,7.69c-.87,1.26-1.86,2.44-3.62,2.21A2.56,2.56,0,0,1,185,79c-.69-2.11,1.13-2.41,2.33-3.19.34-.22.5-.72.77-1.13-1.48-1-2.26.18-3.13.81a12.31,12.31,0,0,1-15.52-.79c-1.46-1.32-2.75-3-1.06-4.67,2-2,3.13-.17,4,1.65s2.47,2.12,4.14,2.33c1.12.14,2.53.47,3.07-.87s-.85-2-1.73-2.66a14.5,14.5,0,0,1-2.3-1.86c-1.09-1.34-1.17-2.89.4-3.89s2.94-.19,3.27,1.6c.76,4.23,3.8,4,6.88,3.67a2,2,0,0,0,2-1.84c.06-.94-.69-1.47-1.44-1.84-2.85-1.42-5.56-2.81-6.85-6.14-.62-1.59-2.74-.53-4.14-.88-1.92-.47-3.83-1.19-2.93-3.6.8-2.18,2.27-1,3.62-.22,2.06,1.2,4.1.85,6.75-.82-5.3-2.76-9.29-6.33-11.11-11.76a31.08,31.08,0,0,1-1.26-4.3c-.24-1.36-.06-3,1.6-3.13,1.37-.1,1.68,1.47,1.72,2.63.18,4.63,2.08,8.21,7,11.49-1.2-3.81-2.18-6.53-2.87-9.32-.36-1.45-.3-3.35,1.69-3.54s1.28,1.69,1.55,2.88c1.05,4.57,1.3,9.68,7.38,12.12-.82-3.67-1.62-6.78-2.17-9.94-.24-1.43-.27-3.47,1.67-3.59C190.5,38,190,40,189.92,41.49A10.35,10.35,0,0,0,193.36,50Zm-8.63,53.75c-1.74-1.78-3.51-1.17-5.09-1.39-1.81-.25-3.64-.31-5.45-.56C147,98,123.51,85.94,102.82,68.56c-5.93-5-10.68-5.75-17.22-3-2.6,1.1-4,2.07-3.1,5,.32,1,1.81,2.75-1.1,2.47-3.12-.3-2.63,1.27-1.21,2.77,1.59,1.68,3.62,2.94,5.18,4.64,1.31,1.45.67,5.16,3.49,4.56,2.51-.53,1-3.69,1.45-5.63,1.34-5.87,7.18-9.94,12.13-8.19,2.29.81,3.15,2.37,2.56,4.66s-1.45,4.85-4.26,4.81c-2.64,0-.37-2.86-1.55-4-4.5,3.72-3.26,12.64,2.27,15.23,19.82,9.3,40.61,14.77,62.61,14.65C170.89,106.56,177.84,106.22,184.73,103.77Zm-148,18c10.85,2.38,20.68,4.56,30.53,6.68,1.76.38,2.22-.15,1.76-2.15-2.64-11.64-2.57-11.65-14.33-14-1.94-.39-3.91-.74-5.81-1.3a3,3,0,0,0-3.79,1.42C43,115.61,40.31,118.27,36.74,121.79ZM24,118.36c6.81,3,9.58,2.24,15.12-4.49,1-1.21,4.25-3,1.75-4.44-2.27-1.28-5.86-4.47-8.67-.33C29.9,112.41,26.9,115,24,118.36ZM78.69,82.59c3.18,5.8,3.24,5.81,2,14.09-.31,2.1-.35,3.44,2.24,3.93,2.29.44,4.19.93,4.86-2.12.47-2.1,1.1-4.16,1.69-6.23,1-3.41-.57-5.58-3.69-6.3A18.92,18.92,0,0,1,78.69,82.59Zm-7.86,35.3c.31,6.47,4.39,12.32,9.19,13.28,1.64.33,3.34.76,2.38-1.85-1.33-3.57-2.13-7.27-3.22-10.89-1-3.38-4.77-2.11-7.32-2.73C70.57,115.38,70.68,116.89,70.83,117.89Z" fill="#fff"/><path d="M15.82,136.21l.4.18-.56.39-.21-.35Z" fill="#fff"/></g></g></svg>