<?xml version="1.0" encoding="utf-8"?>
<!-- Generator: Adobe Illustrator 16.0.0, SVG Export Plug-In . SVG Version: 6.00 Build 0)  -->
<!DOCTYPE svg PUBLIC "-//W3C//DTD SVG 1.1//EN" "http://www.w3.org/Graphics/SVG/1.1/DTD/svg11.dtd">
<svg version="1.1" id="Capa_1" xmlns="http://www.w3.org/2000/svg" xmlns:xlink="http://www.w3.org/1999/xlink" x="0px" y="0px"
	 width="5669.291px" height="2834.65px" viewBox="0 0 5669.291 2834.65" enable-background="new 0 0 5669.291 2834.65"
	 xml:space="preserve">
<g>
	<g>
		<g>
			<path fill="#FFFFFF" d="M2751.436,1056.875c0.343,0,0.659,0.059,0.887,0.191c1.233,0.713,0.81,2.124,0.31,3.128
				c-0.718,1.446-1.568,2.878-2.62,4.097c-9.338,10.839-20.57,19.381-33.302,25.955c9.15-9.591,18.263-19.217,27.49-28.737
				c1.597-1.645,3.6-2.933,5.546-4.183C2750.171,1057.051,2750.842,1056.875,2751.436,1056.875 M2751.436,1048.875
				L2751.436,1048.875c-2.16,0-4.3,0.614-6.026,1.727c-2.198,1.411-4.705,3.021-6.95,5.333c-6.988,7.21-14.01,14.585-20.801,21.716
				c-2.245,2.358-4.49,4.716-6.738,7.072l-32.924,34.513l42.383-21.883c13.992-7.224,26.001-16.591,35.693-27.842
				c1.368-1.584,2.588-3.472,3.725-5.762c3.08-6.187,0.361-11.393-3.47-13.609
				C2754.905,1049.315,2753.21,1048.875,2751.436,1048.875L2751.436,1048.875z"/>
		</g>
		<g>
			<path fill-rule="evenodd" clip-rule="evenodd" fill="#EDC62B" d="M2010.907,1618.68c-28.676,0-57.857-0.536-86.733-1.595
				c-114.359-4.188-213.166-16.261-302.067-36.906c-106.103-24.64-199.278-61.407-284.849-112.401
				c-62.863-37.457-116.599-81.676-159.714-131.431c-45.325-52.304-80.578-112.624-104.78-179.284l-10.783-29.7l22.98,21.686
				c13.455,12.697,26.849,25.896,39.803,38.661c28.071,27.661,57.097,56.263,88.084,81.046
				c141.783,113.403,314.038,177.223,526.605,195.107c62.081,5.223,125.072,7.871,187.226,7.871
				c352.342,0,700.97-81.545,1065.806-249.293c89.207-41.016,170.889-92.384,242.776-152.678
				c155.455-130.395,220.932-269.182,206.058-436.771l-3.642-41.039l17.87,37.122c24.233,50.341,39.26,101.062,44.661,150.754
				c5.632,51.816,1.016,104.413-13.722,156.327c-32.457,114.357-101.848,212.101-212.14,298.818
				c-191.976,150.935-418.749,230.649-635.213,294.307C2437.427,1588.602,2226.061,1618.68,2010.907,1618.68z"/>
			<path fill="#FFFFFF" d="M3448.791,632.328c46.952,97.533,60.121,197.369,30.482,301.779
				c-34.95,123.143-111.02,217.492-209.561,294.97c-187.625,147.515-407.321,226.729-632.693,293.008
				c-204.818,60.235-414.21,89.095-626.113,89.095c-28.778,0-57.592-0.531-86.458-1.59
				c-203.854-7.467-403.416-41.026-583.351-148.255c-121.758-72.549-212.176-171.573-261.284-306.832
				c42.629,40.229,82.722,83.617,128.351,120.109c154.79,123.807,337.082,180.438,530.661,196.724
				c63.103,5.309,125.716,7.896,187.854,7.896c372.002,0,727.019-92.766,1068.94-249.979
				c87.981-40.452,170.179-91.442,244.463-153.746C3377.154,960.533,3465.611,821.856,3448.791,632.328 M3426.565,551.577
				l7.284,82.077c14.638,164.932-49.996,301.683-203.407,430.362c-71.376,59.864-152.491,110.873-241.089,151.609
				c-363.833,167.287-711.436,248.607-1062.674,248.607c-61.945,0-124.725-2.639-186.596-7.844
				c-211.038-17.755-381.965-81.046-522.549-193.49c-30.685-24.541-59.57-53.004-87.505-80.531
				c-12.982-12.792-26.406-26.021-39.92-38.773l-45.96-43.372l21.566,59.4c12.398,34.15,27.735,66.879,45.584,97.278
				c17.466,29.747,37.847,58.128,60.577,84.358c43.641,50.36,97.992,95.095,161.544,132.962
				c44.148,26.31,91.465,49.339,140.636,68.447c45.943,17.855,95.185,32.934,146.354,44.816
				c89.373,20.755,188.646,32.889,303.49,37.096c28.967,1.062,58.24,1.6,87.006,1.6c106.981,0,213.907-7.438,317.811-22.106
				c105.517-14.896,210.668-37.64,312.535-67.598c92.768-27.281,214.371-65.199,332.272-116.685
				c117.886-51.479,217.803-110.004,305.46-178.922c111.58-87.73,181.815-186.733,214.719-302.666
				c15.002-52.847,19.699-106.404,13.963-159.185c-5.494-50.542-20.755-102.085-45.359-153.196L3426.565,551.577L3426.565,551.577z"
				/>
		</g>
		<g>
			<path fill-rule="evenodd" clip-rule="evenodd" fill="#EDC62B" d="M1850.49,1383.95c-30.183,0-60.824-0.82-91.074-2.438
				c-144.539-7.732-332.377-28.986-503.387-125.516c-81.317-45.896-138.051-103.852-173.442-177.18l-17.547-36.357l29.435,27.628
				c192.096,180.308,423.82,203.43,604.236,203.43c31.251,0,63.977-0.774,100.045-2.365
				c259.976-11.474,521.41-71.511,777.04-178.446c104.706-43.8,196.489-100.083,272.801-167.286
				c91.581-80.644,136.653-173.746,141.846-292.997l1.326-30.452l12.956,27.59c28.015,59.66,35.487,113.231,24.228,173.703
				c-26.138,140.178-112.587,248.583-264.289,331.412c-147.163,80.343-296.019,141.962-442.435,183.146
				C2166.235,1361.702,2007.52,1383.95,1850.49,1383.95z"/>
			<path fill="#FFFFFF" d="M2997.934,632.751c29.742,63.337,33.592,115.711,23.644,169.142
				c-28.848,154.709-130.389,255.156-260.51,326.203c-284.921,155.552-587.21,248.354-910.577,248.354
				c-30.048,0-60.259-0.8-90.674-2.427c-173.659-9.29-344.776-36.882-500.101-124.558
				c-73.958-41.742-133.255-96.998-170.375-173.909c176.504,165.673,386.843,205.462,609.37,205.462
				c33.217,0,66.687-0.886,100.375-2.372c271.21-11.969,530.073-74.637,779.604-179.02
				c100.224-41.925,193.163-96.628,274.863-168.576C2938.986,855.819,2992.266,762.92,2997.934,632.751 M2985.6,571.196
				l-2.651,60.903c-5.099,117.074-49.365,208.491-139.31,287.694c-76.764,67.602-165.324,121.899-270.739,165.996
				c-254.814,106.593-515.385,166.438-774.476,177.872c-35.959,1.586-68.576,2.357-99.714,2.357
				c-179.034,0-408.926-22.892-599.104-201.398l-58.869-55.256l35.094,72.712c36.078,74.752,93.815,133.779,176.511,180.452
				c74.099,41.827,154.97,72.326,247.231,93.239c76.249,17.284,158.688,27.845,259.44,33.234
				c30.382,1.625,61.159,2.448,91.476,2.448c80.054,0,161.051-5.747,240.743-17.08c77.396-11.007,155.797-27.603,233.024-49.325
				c74.813-21.043,150.705-47.512,225.568-78.672c72.318-30.1,145.809-65.464,218.429-105.111
				c34.42-18.794,65.886-39.142,93.522-60.479c29.945-23.12,56.511-48.255,78.959-74.709c24.02-28.304,44.128-59.057,59.769-91.404
				c16.527-34.182,28.578-71.2,35.818-110.026c11.565-62.117,3.913-117.096-24.812-178.267L2985.6,571.196L2985.6,571.196z"/>
		</g>
		<g>
			<path fill-rule="evenodd" clip-rule="evenodd" fill="#EDC62B" d="M1681.651,1190.335c-95.623,0-194.623-8.227-294.249-24.452
				c-81.811-13.323-153.753-43.697-213.832-90.278c-29.613-22.957-59.209-48.959-67.392-91.84l-3.699-19.388l15.641,12.039
				c121.456,93.485,264.635,137.025,450.592,137.025c48.262,0,101.56-2.852,162.938-8.72
				c184.457-17.638,364.61-65.467,535.458-142.161c83.198-37.351,177.303-87.593,244.454-177.03
				c22.515-29.979,34.336-64.354,49.303-107.873c0.988-2.873,1.988-5.78,3.003-8.723l5.933-17.189l7.91,16.373
				c19.124,39.583,26.104,77.054,21.343,114.553c-4.092,32.225-17.076,64.654-39.693,99.141
				c-25.621,39.071-58.974,72.682-101.964,102.754c-33.67,23.554-72.452,44.642-125.748,68.377
				c-103.608,46.142-211.507,81.091-320.699,103.876C1904.381,1179.06,1793.589,1190.335,1681.651,1190.335z"/>
			<path fill="#FFFFFF" d="M2570.958,671.382c38.801,80.315,22.236,145.166-17.869,206.318
				c-54.299,82.804-137.513,129.657-224.491,168.394c-209.663,93.374-425.833,136.742-646.947,136.742
				c-96.781,0-194.476-8.302-293.043-24.354c-76.239-12.416-148.294-40.618-210.441-88.803
				c-29.317-22.728-57.011-47.441-64.62-87.318c139.822,107.621,294.509,138.582,455.167,138.582
				c53.99,0,108.649-3.496,163.651-8.754c186.966-17.878,366.573-65.914,537.815-142.785c94.387-42.374,183.19-93.875,247.38-179.37
				C2542.32,757.064,2554.602,718.772,2570.958,671.382 M2568.644,632.111l-11.865,34.377c-1.017,2.946-2.018,5.856-3.007,8.733
				c-14.751,42.894-26.403,76.773-48.207,105.805c-66.128,88.076-159.204,137.734-241.529,174.693
				c-170.099,76.357-349.459,123.977-533.099,141.537c-61.138,5.845-114.202,8.686-162.224,8.686
				c-184.216,0-325.942-43.046-446.019-135.469l-31.282-24.078l7.399,38.776c3.952,20.712,12.891,39.298,27.328,56.817
				c12.703,15.416,28.095,28.116,42.837,39.544c61.077,47.355,134.161,78.226,217.22,91.753
				c100.023,16.289,199.429,24.549,295.454,24.549c112.452,0,223.76-11.329,330.833-33.672
				c109.713-22.894,218.123-58.008,322.218-104.367c53.75-23.938,92.917-45.245,126.996-69.083
				c43.785-30.629,77.783-64.905,103.937-104.788c23.256-35.461,36.623-68.927,40.861-102.309c4.95-38.983-2.256-77.83-22.03-118.76
				L2568.644,632.111L2568.644,632.111z"/>
		</g>
		<g>
			<g>
				<path fill-rule="evenodd" clip-rule="evenodd" fill="#FFFFFF" d="M1090.695,672.198
					c-0.177-187.121,140.814-328.928,327.097-328.961c187.74-0.034,333.109,145.048,332.148,331.501
					c-0.923,179.642-152.989,328.634-334.424,327.672C1235.651,1001.45,1090.876,854.266,1090.695,672.198z"/>
			</g>
			<g>
				<path fill-rule="evenodd" clip-rule="evenodd" fill="#EDC62B" d="M1415.472,1010.91c-89.271-0.477-173.015-35.895-235.807-99.73
					c-62.764-63.807-97.38-148.676-97.469-238.974c-0.088-92.766,34.041-178.227,96.099-240.64
					c62.07-62.425,147.125-96.813,239.497-96.83c93.567,0,180.083,35.204,243.677,99.126
					c63.008,63.334,97.447,148.894,96.973,240.919c-0.231,44.895-9.542,88.668-27.677,130.104
					c-17.471,39.921-42.3,75.885-73.796,106.895c-31.483,30.996-67.929,55.37-108.328,72.444
					c-41.902,17.71-86.103,26.69-131.375,26.69L1415.472,1010.91z M1419.574,403.805c-142.484,0-265.035,121.981-267.611,266.369
					c-1.176,66.008,26.274,132.6,75.312,182.698c50.452,51.543,119.068,81.248,188.255,81.496c0,0,1.057,0.002,1.062,0.002
					c72.503,0.001,139.577-26.934,188.88-75.844c49.298-48.907,76.434-115.446,76.408-187.36
					c-0.058-146.184-116.78-266.117-260.194-267.352C1420.983,403.808,1420.275,403.805,1419.574,403.805z"/>
				<path fill="#FFFFFF" d="M1417.859,343.237c187.724-0.017,333.042,145.059,332.082,331.501
					c-0.92,179.061-152.018,327.676-332.676,327.676c-0.586,0-1.161-0.001-1.748-0.004
					c-179.865-0.96-324.641-148.144-324.821-330.212c-0.177-187.121,140.814-328.928,327.097-328.961
					C1417.804,343.237,1417.848,343.237,1417.859,343.237 M1416.571,942.869c154.565,0,273.863-118.269,273.809-271.707
					c-0.059-150.271-121.105-274.579-268.621-275.848c-0.727-0.006-1.459-0.009-2.185-0.009
					c-146.028,0-273.465,126.519-276.109,274.717c-2.587,145.198,124.15,272.315,272.035,272.846
					C1415.85,942.869,1416.221,942.869,1416.571,942.869 M1417.891,326.237v17V326.237h-0.002h-0.032h-0.065
					c-94.654,0.017-181.85,35.295-245.526,99.336c-63.654,64.019-98.661,151.611-98.571,246.641
					c0.046,46.765,9.077,92.114,26.841,134.788c17.172,41.25,41.755,78.306,73.068,110.139
					c31.327,31.848,67.854,56.906,108.565,74.48c42.146,18.192,86.979,27.542,133.255,27.789c0.618,0.003,1.222,0.005,1.839,0.005
					c46.416,0,91.73-9.205,134.685-27.36c41.392-17.494,78.731-42.464,110.982-74.216c32.271-31.771,57.713-68.627,75.62-109.543
					c18.602-42.503,28.153-87.409,28.39-133.469c0.485-94.307-34.833-182.015-99.452-246.967
					C1602.294,362.327,1513.651,326.237,1417.891,326.237L1417.891,326.237z M1416.571,925.869l-1.011-0.002
					c-66.926-0.24-133.339-29.013-182.211-78.941c-47.457-48.483-74.023-112.853-72.887-176.602
					c2.496-139.861,121.154-258.02,259.112-258.02c0.677,0,1.361,0.003,2.039,0.009c138.769,1.194,251.711,117.316,251.767,258.855
					c0.025,69.627-26.218,134.021-73.895,181.317C1551.783,899.808,1486.823,925.869,1416.571,925.869L1416.571,925.869z"/>
			</g>
			
				<text transform="matrix(0.932 0 0 1 1164.8218 764.9272)" fill="#EDC62B" font-family="'TimesNewRomanPS-BoldMT'" font-size="312.555">CIP</text>
		</g>
	</g>
	<g>
		<text transform="matrix(1 0 0 1 1601.1323 2426.6953)" font-family="'CenturyGothic'" font-size="211.0547" letter-spacing="57">Puerto Limón</text>
		<text transform="matrix(1 0 0 1 3649.9805 2426.6953)" font-family="'CenturyGothic'" font-size="211.0547" letter-spacing="61">•</text>
		<text transform="matrix(1 0 0 1 3832.2813 2426.6943)" font-family="'CenturyGothic'" font-size="211.0547" letter-spacing="64">Costa Rica</text>
	</g>
	<g>
		<g>
			<g>
				<path d="M272.868,2249.154c-29.248,0-56.798-3.966-81.884-11.787c-25.219-7.855-47.356-19.185-65.796-33.672
					c-18.522-14.554-33.285-31.842-43.88-51.383c-10.707-19.743-16.136-41.606-16.136-64.982c0-27.498,6.869-51.054,20.417-70.013
					c14.075-19.699,31.747-29.688,52.524-29.688c11.204,0,20.766,3.291,28.422,9.783c7.986,6.806,12.029,15.512,12.029,25.887
					c0,13.604-6.984,30.984-40.255,36.528l-6.848,0.983c-13.807,2.069-32.222,9.06-32.222,45.632
					c0,15.879,4.028,30.945,11.972,44.78c8.067,14.03,19.305,26.319,33.397,36.52c14.276,10.33,31.444,18.671,51.025,24.793
					c19.638,6.13,41.122,9.239,63.854,9.239c98.828,0,196.472-50.387,290.22-149.761c14.58-15.221,27.84-29.759,39.448-43.247
					c11.637-13.527,23.44-28.201,35.08-43.615c11.573-15.326,24.369-33.242,38.033-53.25c7.817-11.456,16.53-24.493,26.049-38.973
					c-2.579,2.619-4.973,5.033-7.193,7.255c-8.835,8.833-16.595,16.431-23.064,22.583c-6.526,6.205-12.815,11.665-18.691,16.226
					c-5.816,4.527-13.258,10.029-22.112,16.348c-44.339,33.887-83.679,51.066-116.933,51.066c-28.874,0-52.737-11.492-70.925-34.158
					c-17.827-22.191-26.867-50.677-26.867-84.66c0-16.442,1.672-31.78,4.97-45.587c2.81-11.82,8.096-27.418,15.74-46.453
					c-19.359-1.303-35.491-3.229-48.056-5.742c-14.566-2.913-30.469-7.339-47.267-13.154l-0.151-0.055
					c-33.592-12.501-60.516-31.593-80.024-56.745c-19.682-25.339-29.663-53.471-29.663-83.611c0-16.735,3.214-33.504,9.553-49.84
					c6.31-16.274,15.561-31.586,27.495-45.507c11.793-13.761,26.057-26.537,42.395-37.973c16.298-11.407,34.458-21.15,53.978-28.957
					l0.099-0.039c52.191-19.966,115.412-30.09,187.906-30.09c26.193,0,50.583,1.303,72.493,3.871
					c21.822,2.572,44.565,6.471,67.602,11.587l8.754,1.943l-11.179,22.355l-5.241-1.047c-25.207-5.033-47.959-8.534-67.626-10.407
					c-19.762-1.881-39.313-2.835-58.11-2.835c-41.866,0-81.158,4.59-116.783,13.642c-35.479,9.031-66.689,21.474-92.76,36.981
					c-25.776,15.35-46.27,33.804-60.909,54.847c-14.388,20.681-21.683,43.291-21.683,67.201c0,37.449,16.068,66.996,49.123,90.329
					c32.614,23.048,77.019,36.207,132.033,39.138c17.519-29.976,44.196-62.343,79.357-96.274
					c36.498-35.207,78.955-68.917,126.194-100.194c48.591-32.613,97.785-58.425,146.18-76.69
					c48.667-18.371,92.104-27.686,129.103-27.686c23.71,0,42.946,5.277,57.174,15.686c14.903,10.91,22.459,25.994,22.459,44.833
					c0,18.658-7.541,38.233-22.413,58.18c-14.345,19.232-33.925,38.498-58.196,57.262c-24.084,18.635-52.558,36.699-84.626,53.69
					c-31.978,16.946-66.337,32.344-102.123,45.764c-35.837,13.434-73.281,24.618-111.292,33.244
					c-36.92,8.375-73.296,13.667-108.177,15.741c-39.068,55.288-58.876,101.865-58.876,138.467c0,14.094,4.619,25.423,14.12,34.635
					c9.563,9.285,21.097,13.798,35.265,13.798c24.576,0,53.635-11.327,86.368-33.667c33.488-22.846,73.116-58.992,117.786-107.435
					l23.779-25.682c7.992-9.573,14.334-13.845,20.549-13.845c10.72,0,17.707,11.479,22.029,20.112
					c5.884,11.798,8.865,23.46,8.865,34.67c0,12.108-4.34,26.016-13.268,42.517c-8.414,15.525-23.376,37.982-44.474,66.751
					c-32.607,44.118-67.592,84.284-104,119.405c-36.457,35.182-74.128,65.218-111.966,89.272
					c-37.881,24.071-76.995,42.811-116.256,55.697C349.363,2242.607,310.366,2249.154,272.868,2249.154z M648.412,1640.443
					c-10.044,9.493-20.192,19.017-31.021,29.11c-8.977,8.353-18.349,17.726-27.861,27.864
					c-9.478,10.113-20.019,21.934-31.328,35.126c-8.709,10.161-18.836,22.32-30.206,36.267
					c45.132-5.67,92.256-16.161,140.346-31.255c54.119-16.994,104.484-38.349,149.697-63.471
					c47.002-26.322,84.791-52.981,112.294-79.225c26.464-25.268,39.884-47.038,39.884-64.704c0-10.5-4.086-18.672-12.493-24.981
					c-8.911-6.679-21.003-10.066-35.938-10.066c-34.998,0-76.655,12.745-123.815,37.883
					C750.3,1558.393,699.983,1594.542,648.412,1640.443z"/>
				<path fill="#FFFFFF" d="M539.507,1450.836c26.119,0,50.011,1.283,71.678,3.823c21.653,2.553,43.962,6.374,66.899,11.468
					l-4.778,9.555c-25.49-5.09-48.264-8.601-68.333-10.512c-20.068-1.91-39.662-2.866-58.774-2.866
					c-42.694,0-82.191,4.63-118.507,13.857c-36.317,9.244-67.855,21.832-94.614,37.75c-26.759,15.935-47.786,34.885-63.077,56.864
					c-15.291,21.979-22.937,45.725-22.937,71.199c0,39.514,17.352,71.529,52.086,96.048c34.718,24.535,81.384,38.077,140.01,40.617
					c17.203-30.582,43.962-63.391,80.277-98.436c36.317-35.033,78.04-68.171,125.198-99.395
					c48.411-32.493,96.674-57.818,144.788-75.979c48.099-18.156,90.314-27.234,126.631-27.234c22.295,0,39.974,4.776,53.041,14.335
					c13.051,9.555,19.592,22.622,19.592,39.184c0,17.201-7.019,35.21-21.025,53.995c-14.022,18.801-32.972,37.437-56.866,55.908
					c-23.892,18.485-51.771,36.167-83.623,53.043c-31.868,16.889-65.629,32.017-101.304,45.395
					c-35.69,13.379-72.484,24.372-110.384,32.973c-37.915,8.601-74.709,13.855-110.384,15.769
					c-41.422,57.982-62.12,106.411-62.12,145.266c0,15.932,5.405,29.148,16.248,39.66c10.827,10.514,24.206,15.772,40.138,15.772
					c26.119,0,56.224-11.619,90.314-34.885c34.078-23.249,73.739-59.402,118.986-108.472l23.892-25.804
					c6.361-7.646,11.468-11.468,15.29-11.468c5.094,0,10.35,5.421,15.77,16.246c5.407,10.841,8.125,21.353,8.125,31.536
					c0,10.844-4.151,23.895-12.425,39.186c-8.288,15.292-22.938,37.273-43.962,65.942c-32.493,43.964-66.899,83.475-103.214,118.507
					c-36.317,35.047-73.276,64.509-110.862,88.403c-37.6,23.893-75.829,42.2-114.684,54.954
					c-38.87,12.735-76.785,19.112-113.728,19.112c-28.671,0-55.281-3.825-79.8-11.47c-24.535-7.643-45.725-18.485-63.555-32.493
					c-17.844-14.021-31.866-30.431-42.051-49.216c-10.198-18.804-15.29-39.335-15.29-61.646c0-26.117,6.36-48.097,19.112-65.943
					c12.739-17.829,28.344-26.757,46.829-26.757c9.559,0,17.518,2.715,23.895,8.122c6.36,5.42,9.556,12.273,9.556,20.548
					c0,15.934-11.469,25.802-34.406,29.624l-6.689,0.958c-25.491,3.821-38.229,21.354-38.229,52.562
					c0,17.205,4.3,33.286,12.901,48.266c8.602,14.961,20.385,27.863,35.363,38.705c14.96,10.824,32.642,19.426,53.041,25.803
					c20.382,6.363,42.365,9.559,65.942,9.559c101.303,0,199.742-50.652,295.312-151.957c14.648-15.292,27.863-29.774,39.662-43.484
					c11.781-13.694,23.564-28.343,35.36-43.963c11.781-15.603,24.52-33.449,38.228-53.521
					c13.693-20.069,29.777-44.438,48.264-73.108l3.822-5.733c1.27-2.54,1.913-4.137,1.913-4.78c0-1.268-0.643-1.912-1.913-1.912
					c-0.642,0-1.12,0.166-1.434,0.479c-0.33,0.328-1.434,1.434-3.345,3.347l-3.822,4.775c-14.666,15.294-26.447,27.402-35.36,36.318
					c-8.932,8.931-16.576,16.411-22.937,22.459c-6.377,6.063-12.426,11.318-18.16,15.769c-5.734,4.464-13.065,9.887-21.979,16.247
					c-43.336,33.137-80.921,49.697-112.773,49.697c-26.761,0-48.592-10.512-65.465-31.539
					c-16.889-21.024-25.327-47.784-25.327-80.279c0-15.918,1.583-30.58,4.779-43.961c3.18-13.381,9.556-31.539,19.115-54.477
					c-23.579-1.268-42.53-3.342-56.866-6.209s-29.79-7.172-46.35-12.905c-32.494-12.093-58.148-30.254-76.934-54.475
					c-18.8-24.204-28.194-50.651-28.194-79.321c0-15.918,3.018-31.688,9.079-47.308c6.05-15.604,14.814-30.105,26.283-43.483
					c11.468-13.381,25.162-25.642,41.094-36.794c15.918-11.142,33.45-20.548,52.563-28.192
					C405.71,1460.721,467.502,1450.836,539.507,1450.836 M511.792,1777.684c50.966-5.092,103.842-16.248,158.646-33.449
					c54.788-17.204,105.127-38.541,151.001-64.03c47.785-26.761,85.683-53.521,113.727-80.279
					c28.029-26.762,42.051-50.011,42.051-69.769c0-12.735-5.106-22.936-15.291-30.58c-10.2-7.645-23.579-11.468-40.14-11.468
					c-36.317,0-78.696,12.901-127.107,38.705c-48.428,25.804-98.766,61.971-151.001,108.472
					c-11.469,10.841-21.832,20.546-31.061,29.148c-9.243,8.601-18.636,18.009-28.193,28.194
					c-9.556,10.198-20.069,21.981-31.538,35.36C541.419,1741.367,527.711,1757.944,511.792,1777.684 M539.507,1436.836
					c-73.352,0-137.415,10.279-190.408,30.552l-0.099,0.038l-0.098,0.039c-20.017,8.007-38.653,18.006-55.392,29.722
					c-16.82,11.773-31.521,24.946-43.697,39.153c-12.45,14.523-22.109,30.516-28.706,47.533
					c-6.652,17.143-10.026,34.763-10.026,52.368c0,31.732,10.476,61.31,31.137,87.909c20.313,26.189,48.277,46.045,83.108,59.008
					l0.15,0.056l0.152,0.053c17.097,5.919,33.308,10.429,48.185,13.404c10.722,2.144,23.932,3.868,39.433,5.149
					c-5.945,15.439-10.082,28.158-12.557,38.57c-3.421,14.323-5.158,30.209-5.158,47.198c0,35.618,9.559,65.578,28.412,89.047
					c19.578,24.397,45.278,36.771,76.38,36.771c17.808,0,37.229-4.579,57.725-13.611c19.668-8.667,40.988-21.729,63.368-38.824
					c8.894-6.348,16.382-11.886,22.26-16.462c1.01-0.783,2.032-1.594,3.064-2.428c-9.964,14.29-19.379,27.313-28.093,38.853
					c-11.549,15.294-23.257,29.853-34.8,43.27c-11.526,13.393-24.701,27.837-39.158,42.93l-0.037,0.039l-0.037,0.038
					c-92.373,97.917-188.304,147.564-285.128,147.564c-22.023,0-42.806-3.002-61.77-8.922
					c-18.853-5.895-35.343-13.896-49.007-23.782c-13.284-9.615-23.86-21.17-31.433-34.341c-7.426-12.934-11.038-26.44-11.038-41.287
					c0-30.603,13.262-36.75,26.253-38.709l6.65-0.952l0.159-0.022l0.158-0.026c40.114-6.685,46.104-30.082,46.104-43.434
					c0-12.343-5.005-23.133-14.475-31.203c-8.982-7.616-20.068-11.467-32.976-11.467c-23.167,0-42.755,10.974-58.22,32.617
					c-14.413,20.172-21.721,45.097-21.721,74.083c0,24.555,5.714,47.54,16.983,68.32c11.052,20.384,26.43,38.4,45.708,53.549
					c19.113,15.016,42.004,26.742,68.041,34.852c25.758,8.031,54.008,12.104,83.964,12.104c38.24,0,77.97-6.664,118.087-19.809
					c39.821-13.07,79.463-32.06,117.833-56.441c38.237-24.309,76.28-54.638,113.075-90.146
					c36.685-35.388,71.929-75.851,104.751-120.26l0.015-0.021l0.016-0.021c21.584-29.433,36.298-51.528,44.981-67.551
					c9.5-17.559,14.116-32.556,14.116-45.856c0-12.305-3.229-25.017-9.596-37.784c-2.979-5.95-12.014-23.998-28.298-23.998
					c-10.777,0-19.434,8.603-25.808,16.221l-23.646,25.539c-44.33,48.074-83.554,83.871-116.604,106.419
					c-31.551,21.532-59.281,32.449-82.424,32.449c-12.257,0-22.196-3.865-30.385-11.816c-8.078-7.831-12-17.517-12-29.616
					c0-34.538,18.723-78.819,55.669-131.689c34.229-2.23,69.829-7.502,105.932-15.691c38.319-8.696,76.069-19.973,112.201-33.517
					c36.068-13.525,70.703-29.047,102.945-46.134c32.419-17.177,61.231-35.46,85.634-54.34c24.77-19.149,44.797-38.87,59.521-58.611
					c15.795-21.184,23.803-42.166,23.803-62.365c0-20.896-8.756-38.353-25.322-50.48c-15.458-11.307-36.084-17.038-61.311-17.038
					c-37.847,0-82.115,9.467-131.575,28.137c-48.883,18.45-98.539,44.496-147.598,77.42
					c-47.583,31.507-90.368,65.479-127.164,100.975c-34.187,32.991-60.5,64.595-78.339,94.077
					c-51.725-3.288-93.461-15.929-124.149-37.616c-31.066-21.93-46.166-49.605-46.166-84.614c0-22.77,6.683-43.444,20.43-63.204
					c14.065-20.218,33.831-37.993,58.747-52.831c25.487-15.161,56.074-27.345,90.904-36.211
					c35.056-8.907,73.768-13.425,115.054-13.425c18.578,0,37.906,0.943,57.447,2.804c19.43,1.85,41.945,5.316,66.919,10.303
					l10.482,2.094l4.781-9.561l4.778-9.555l8.021-16.041l-17.508-3.888c-23.267-5.167-46.245-9.104-68.295-11.704
					C590.635,1438.154,565.971,1436.836,539.507,1436.836L539.507,1436.836z M653.145,1645.603
					c51.128-45.497,100.963-81.308,148.119-106.434c46.138-24.592,86.687-37.061,120.524-37.061c13.387,0,24.067,2.917,31.743,8.671
					c6.697,5.026,9.687,11.004,9.687,19.377c0,10.779-6.544,29.877-37.719,59.643c-27.076,25.835-64.389,52.144-110.9,78.19
					c-44.759,24.869-94.686,46.036-148.354,62.888c-41.454,13.012-82.173,22.572-121.481,28.54
					c6.823-8.251,13.091-15.71,18.754-22.317c11.243-13.115,21.715-24.857,31.124-34.899c9.398-10.016,18.658-19.276,27.514-27.518
					C632.978,1664.594,643.114,1655.082,653.145,1645.603L653.145,1645.603z"/>
			</g>
			<g>
				<path d="M877.812,2131.602c-6.565,0-15.905-2.388-23.115-13.765c-5.158-8.092-7.779-18.36-7.779-30.507
					c0-18.82,3.768-36.236,11.2-51.764c7.262-15.188,20.503-33.438,39.354-54.238l66.908-73.6
					c9.652-10.869,18.194-20.379,25.334-28.204c6.368-6.966,11.132-12.794,14.164-17.328c1.933-2.904,3.488-5.423,4.647-7.524
					c-11.004,9.685-21.148,14.9-30.889,15.862l-97.602,110.416l-16.634-16.643l87.97-98.263c-5.172-3.975-7.926-9.993-7.926-17.64
					c0-6.693,1.804-14.226,5.362-22.387c3.439-7.912,7.978-15.244,13.486-21.783c5.381-6.393,11.057-11.892,16.868-16.34
					c6.633-5.079,13.37-7.655,20.024-7.655c5.23,0,10.034,2.386,14.276,7.09c4.054,4.522,6.103,9.31,6.103,14.245
					c0,5.535-1.213,10.769-3.605,15.556c-1.081,2.162-3.007,5.403-5.822,9.791c1.676-0.535,3.448-0.808,5.294-0.808
					c9.396,0,25.159,4.759,25.159,36.628c0,17.378-3.39,34.505-10.076,50.904c-6.654,16.303-17.694,32.903-32.815,49.348
					l-69.714,79.264c-12.271,13.646-21.061,23.497-27.715,31.061c-6.819,7.747-11.95,14.114-15.251,18.928
					c-3.262,4.745-5.462,8.384-6.541,10.821c-0.874,1.954-1.312,3.726-1.312,5.289c0,0.208,0.01,0.376,0.023,0.507
					c0.302,0.066,0.805,0.138,1.578,0.138c3.205,0,11.157-1.546,28.416-11.901c13.914-8.35,28.86-19.208,44.422-32.271
					c6.053-5.373,10.918-9.609,14.871-12.948c3.899-3.297,9.146-8.553,15.592-15.619c7.505-8.208,17.099-18.628,27.75-30.14
					c11.889-12.854,28.418-31.15,49.13-54.379l18.067-19.36l17.151,14.703l-18.034,20.615
					c-24.687,27.858-45.477,50.742-61.822,68.051c-16.559,17.533-28.4,29.528-36.2,36.672
					C934.967,2112.238,902.153,2131.602,877.812,2131.602z"/>
				<path fill="#FFFFFF" d="M999.185,1787.24c3.18,0,6.211,1.6,9.078,4.778c2.867,3.198,4.301,6.377,4.301,9.557
					c0,4.467-0.956,8.602-2.867,12.427c-1.911,3.821-7.017,11.795-15.291,23.892c-1.284,2.552-2.553,4.778-3.822,6.688
					c-1.284,1.913-2.554,3.823-3.824,5.734c3.182-1.911,5.885-3.492,8.125-4.777c2.224-1.271,3.971-2.54,5.256-3.824
					c5.092-3.821,8.437-6.211,10.034-7.165c1.583-0.958,3.346-1.436,5.256-1.436c12.096,0,18.159,9.885,18.159,29.628
					c0,16.575-3.196,32.657-9.558,48.262c-6.376,15.621-16.887,31.387-31.538,47.308l-69.766,79.323
					c-11.468,12.752-20.711,23.1-27.714,31.061c-7.019,7.973-12.274,14.497-15.769,19.592c-3.51,5.105-5.898,9.078-7.168,11.945
					c-1.284,2.869-1.912,5.584-1.912,8.124c0,5.106,2.867,7.645,8.601,7.645c7.004,0,17.682-4.298,32.017-12.899
					c14.336-8.603,29.462-19.594,45.396-32.975c5.734-5.09,10.662-9.393,14.814-12.9c4.135-3.496,9.556-8.915,16.246-16.248
					c6.689-7.315,15.918-17.352,27.716-30.104c11.78-12.737,28.193-30.896,49.217-54.475l13.381-14.337l6.689,5.734l-13.378,15.293
					c-24.849,28.041-45.397,50.651-61.643,67.854c-16.248,17.204-28.193,29.314-35.838,36.315
					c-41.424,38.23-73.276,57.342-95.57,57.342c-7.019,0-12.753-3.491-17.203-10.512c-4.464-7.003-6.691-15.918-6.691-26.76
					c0-17.83,3.495-34.077,10.514-48.741c7.004-14.648,19.743-32.164,38.227-52.561l66.901-73.591
					c10.184-11.468,18.634-20.861,25.326-28.194c6.689-7.317,11.618-13.379,14.812-18.156c3.182-4.78,5.407-8.602,6.691-11.468
					c1.268-2.867,1.91-5.886,1.91-9.08c0-3.179-0.956-4.778-2.867-4.778c-1.283,0-3.509,1.284-6.689,3.821l-4.779,4.78
					c-10.841,9.555-20.711,14.335-29.627,14.335l-94.615,107.038l-6.689-6.692l89.835-100.346
					c-8.286-1.913-12.423-7.002-12.423-15.292c0-5.733,1.583-12.258,4.779-19.589c3.181-7.317,7.317-14.01,12.423-20.071
					c5.092-6.05,10.348-11.141,15.77-15.291C988.82,1789.315,994.078,1787.24,999.185,1787.24 M999.185,1773.24
					c-8.228,0-16.397,3.062-24.281,9.099c-6.212,4.755-12.258,10.607-17.968,17.391c-5.941,7.054-10.839,14.964-14.552,23.506
					c-3.939,9.034-5.939,17.508-5.939,25.17c0,6.901,1.904,12.941,5.423,17.76l-79.266,88.54l-8.834,9.867l9.363,9.367l6.689,6.693
					l10.148,10.152c-12.967,15.605-22.238,29.364-28.167,41.765c-7.884,16.473-11.883,34.905-11.883,54.78
					c0,13.501,2.99,25.036,8.886,34.285c8.894,14.034,20.686,16.986,29.008,16.986c13.86,0,29.5-5.342,47.814-16.33
					c16.666-9.999,35.919-25.039,57.228-44.702c7.926-7.26,19.881-19.367,36.545-37.013c16.396-17.361,37.237-40.301,61.943-68.181
					l0.03-0.033l0.029-0.034l13.378-15.293l9.311-10.643l-10.736-9.204l-6.689-5.734l-10.189-8.735l-9.157,9.812l-13.381,14.337
					l-0.108,0.117l-0.106,0.118c-20.684,23.197-37.185,41.462-49.045,54.286c-10.657,11.519-20.261,21.949-27.771,30.162
					c-6.254,6.856-11.282,11.9-14.953,15.005c-3.977,3.359-8.861,7.612-14.924,12.992c-15.255,12.801-29.873,23.421-43.45,31.569
					c-6.149,3.689-10.922,6.134-14.57,7.752c0.526-0.799,1.115-1.674,1.773-2.631c3.151-4.595,8.107-10.738,14.74-18.272
					c6.637-7.546,15.411-17.379,27.616-30.95l0.052-0.058l0.051-0.058l69.664-79.207c15.659-17.04,27.128-34.326,34.089-51.379
					c7.032-17.248,10.596-35.264,10.596-53.553c0-31.568-14.456-40.561-25.171-42.886c2.751-5.659,4.145-11.806,4.145-18.281
					c0-6.712-2.65-13.072-7.876-18.901C1011.652,1774.871,1004.201,1773.24,999.185,1773.24L999.185,1773.24z M981.152,1877.125
					c0.513-0.086,1.026-0.182,1.54-0.286c-6.761,7.433-14.667,16.243-23.543,26.237l-33.825,37.207L981.152,1877.125
					L981.152,1877.125z"/>
			</g>
			<g>
				<path d="M1306.914,2132.559c-13.221,0-28.981-7.515-28.981-43.316c0-14.109,2.384-28.071,7.084-41.499
					c0.433-1.238,0.895-2.491,1.386-3.76c-23.043,21.433-44.536,39.591-64.19,54.218c-30.173,22.475-51.548,33.4-65.343,33.4
					c-6.301,0-15.062-2.393-21.018-13.789c-4.071-7.769-6.052-17.741-6.052-30.482c0-11.193,0.669-21.349,1.988-30.182
					c1.354-9.166,4.103-18.46,8.171-27.613c4.012-9.022,9.585-18.32,16.564-27.635c6.83-9.102,15.786-19.853,26.625-31.961
					l77.437-89.866c0.869-0.979,1.689-1.912,2.459-2.8c-0.031,0.024-0.063,0.049-0.095,0.073c-8.389,6.522-18,15.033-28.571,25.298
					c-10.748,10.425-22.276,21.952-34.267,34.268c-11.88,12.188-22.36,23.777-31.15,34.45l-4.901,5.951l-16.748-16.745l4.263-4.926
					c8.214-9.491,15.485-17.731,21.608-24.491c6.031-6.672,12.062-13.026,17.919-18.885c5.943-5.942,11.938-11.775,17.819-17.337
					c6.149-5.832,13.795-12.666,22.717-20.303c18.196-15.682,31.991-27.713,40.985-35.744
					c12.028-10.735,13.812-12.397,14.072-12.651l0.324-0.315l0.402-0.312c8.971-6.73,16.597-10.002,23.313-10.002
					c8.493,0,15.866,3.755,21.321,10.858c5.087,6.669,7.66,14.689,7.66,23.855c0,3.576-0.366,7.247-1.087,10.911
					c-0.813,4.049-2.67,8.39-5.68,13.297c-2.644,4.297-6.019,9.282-10.325,15.25c-4.307,5.948-10.025,13.142-17.003,21.387
					l-75.447,93.596c-12.388,15.602-22.9,28.831-31.501,39.654l-9.086,11.436c-9.634,12.107-16.928,21.775-21.681,28.74
					c-5.657,8.31-7.211,12.135-7.633,13.674c-0.785,2.883-1.184,5.962-1.184,9.14c0,0.706,0.049,1.22,0.107,1.579
					c1.896-0.179,7.854-1.662,23.072-11.313c12.786-8.104,27.361-18.722,43.325-31.559c16.011-12.86,32.607-27.223,49.33-42.689
					c16.654-15.401,31.753-30.818,44.88-45.824l29.586-33.4c12.674-15.218,23.293-27.766,31.561-37.297
					c8.203-9.48,15.343-18.208,21.217-25.933c5.953-7.832,12.258-15.917,18.74-24.027c6.201-7.757,13.784-17.706,22.543-29.577
					c4.777-8.125,10.487-9.846,14.463-9.846c7.477,0,14.228,4.218,20.065,12.535c5.287,7.575,7.962,15.676,7.962,24.093
					c0,6.278-1.98,13.122-6.053,20.921c-3.755,7.155-10.701,17.037-21.237,30.221l-81.264,106.117
					c-14.533,18.321-26.564,33.721-35.758,45.77c-9.138,11.975-16.285,21.82-21.243,29.263c-4.811,7.201-8.143,12.932-9.908,17.041
					c-1.357,3.171-1.922,5.204-2.151,6.432c5.178-0.367,14.375-2.807,30.082-11.497c14.47-8.002,28.7-18.013,42.296-29.755
					c4.97-4.345,9.512-8.237,13.468-11.543c3.561-2.962,8.832-8.085,15.677-15.236c6.942-7.254,16.688-17.959,28.967-31.818
					c13.873-15.641,31.877-35.792,52.076-58.285l16.655-19.221l18.903,14.177l-18.445,21.08
					c-24.167,26.513-45.142,49.635-60.659,66.865c-14.308,15.902-25.939,28.503-34.57,37.448
					c-8.808,9.146-16.503,16.162-22.867,20.847c-6.178,4.547-13.855,9.775-22.822,15.543l-0.134,0.084
					c-11.696,7.157-22.972,12.957-33.514,17.239C1322.32,2130.358,1313.642,2132.559,1306.914,2132.559z"/>
				<path fill="#FFFFFF" d="M1310.736,1822.603c6.362,0,11.618,2.716,15.77,8.122c4.137,5.423,6.212,11.947,6.212,19.592
					c0,3.196-0.329,6.379-0.955,9.559c-0.642,3.195-2.241,6.853-4.779,10.989c-2.555,4.152-5.897,9.08-10.035,14.814
					c-4.151,5.733-9.722,12.753-16.724,21.024l-75.5,93.66c-17.203,21.666-30.747,38.704-40.618,51.129
					c-9.886,12.424-17.203,22.146-21.981,29.148c-4.777,7.018-7.645,12.277-8.602,15.77c-0.955,3.51-1.433,7.167-1.433,10.99
					c0,5.734,2.227,8.601,6.691,8.601c5.092,0,14.17-4.137,27.237-12.424c13.051-8.272,27.715-18.949,43.962-32.015
					c16.248-13.051,32.808-27.386,49.696-43.006c16.875-15.605,32.017-31.061,45.396-46.354l29.627-33.447
					c12.737-15.293,23.25-27.718,31.539-37.272c8.271-9.56,15.44-18.311,21.501-26.282c6.049-7.96,12.261-15.918,18.636-23.895
					c6.362-7.958,14.007-17.994,22.937-30.103c2.54-4.45,5.406-6.69,8.601-6.69c5.092,0,9.872,3.196,14.336,9.557
					c4.449,6.375,6.691,13.065,6.691,20.071c0,5.104-1.763,10.988-5.258,17.681c-3.51,6.687-10.363,16.409-20.546,29.147
					l-81.235,106.08c-14.665,18.487-26.611,33.781-35.838,45.874c-9.244,12.113-16.411,21.983-21.503,29.628
					c-5.107,7.645-8.602,13.708-10.514,18.158c-1.912,4.466-2.867,7.974-2.867,10.514c0,3.821,1.912,5.733,5.734,5.733
					c8.273,0,19.906-4.137,34.884-12.424c14.961-8.273,29.462-18.474,43.483-30.582c5.092-4.451,9.557-8.273,13.381-11.469
					c3.822-3.18,9.229-8.438,16.246-15.768c7.004-7.319,16.727-17.995,29.15-32.017c12.423-14.007,29.775-33.451,52.087-58.298
					l12.423-14.337l7.646,5.734l-13.38,15.293c-26.134,28.672-46.353,50.979-60.688,66.896
					c-14.336,15.935-25.805,28.358-34.406,37.272c-8.601,8.932-15.933,15.619-21.979,20.07c-6.064,4.463-13.544,9.559-22.459,15.293
					c-11.469,7.018-22.311,12.588-32.495,16.725c-10.199,4.15-18.158,6.211-23.892,6.211c-14.663,0-21.981-12.096-21.981-36.316
					c0-13.381,2.226-26.432,6.691-39.186c4.449-12.735,12.096-27.07,22.937-43.007c-35.69,35.691-67.856,64.198-96.527,85.536
					c-28.671,21.355-49.068,32.016-61.164,32.016c-6.377,0-11.32-3.346-14.814-10.031c-3.508-6.693-5.256-15.773-5.256-27.24
					c0-10.824,0.627-20.547,1.912-29.147c1.27-8.601,3.822-17.204,7.645-25.805c3.825-8.602,9.08-17.353,15.77-26.28
					c6.69-8.916,15.441-19.43,26.282-31.539l77.411-89.837c5.092-5.733,8.602-10.032,10.512-12.899
					c1.913-2.867,2.868-4.929,2.868-6.213c0-2.539-1.283-3.825-3.822-3.825c-2.553,0-8.123,3.346-16.725,10.038
					c-8.601,6.687-18.323,15.287-29.149,25.801c-10.841,10.514-22.31,21.982-34.406,34.406
					c-12.111,12.424-22.622,24.058-31.538,34.883l-6.689-6.688c8.273-9.56,15.441-17.681,21.503-24.373
					c6.046-6.688,11.946-12.899,17.681-18.634c5.734-5.733,11.617-11.468,17.679-17.201c6.048-5.736,13.529-12.427,22.459-20.071
					c18.471-15.918,32.165-27.865,41.095-35.841c8.914-7.956,13.693-12.259,14.336-12.899
					C1299.267,1825.47,1305.629,1822.603,1310.736,1822.603 M1310.736,1808.603c-8.287,0-17.287,3.729-27.514,11.402l-0.785,0.589
					l-0.629,0.627c-0.4,0.379-2.542,2.352-13.843,12.438c-8.969,8.01-22.733,20.014-40.913,35.681
					c-8.977,7.685-16.711,14.598-22.954,20.519c-5.913,5.592-11.955,11.471-17.944,17.459c-5.94,5.94-12.053,12.382-18.167,19.146
					c-6.15,6.789-13.456,15.069-21.704,24.6l-8.525,9.851l9.212,9.212l6.689,6.688l7.691,7.689
					c-3.877,4.702-7.358,9.108-10.423,13.193c-7.299,9.741-13.14,19.494-17.364,28.994c-4.327,9.736-7.254,19.643-8.702,29.448
					c-1.367,9.151-2.062,19.653-2.062,31.192c0,13.9,2.243,24.937,6.855,33.739c5.906,11.301,15.573,17.532,27.214,17.532
					c9.797,0,27.664-3.606,69.527-34.788c14.605-10.869,30.205-23.659,46.682-38.266c-1.427,7.81-2.146,15.729-2.146,23.694
					c0,14.853,2.458,26.135,7.515,34.49c6.177,10.205,16.287,15.826,28.467,15.826c7.65,0,17.191-2.369,29.169-7.243
					c10.886-4.422,22.505-10.396,34.525-17.751l0.134-0.082l0.133-0.085c9.089-5.847,16.889-11.159,23.183-15.792
					c6.778-4.989,14.551-12.065,23.766-21.635c8.677-8.993,20.365-21.654,34.729-37.62c15.489-17.199,36.455-40.31,60.626-66.829
					l0.096-0.104l0.094-0.107l13.38-15.293l9.94-11.361l-12.077-9.058l-7.646-5.734l-10.437-7.827l-8.543,9.859l-12.342,14.243
					c-20.195,22.489-38.195,42.636-52.061,58.27c-12.225,13.798-21.91,24.438-28.791,31.627c-6.663,6.96-11.738,11.9-15.084,14.685
					c-4.013,3.353-8.584,7.271-13.613,11.666c-13.221,11.414-27.039,21.135-41.073,28.896c-5.855,3.24-10.646,5.52-14.541,7.112
					c1.41-2.412,3.27-5.397,5.72-9.065c4.885-7.332,11.944-17.055,20.992-28.911c9.168-12.015,21.171-27.379,35.677-45.667
					l0.074-0.094l0.073-0.095l81.147-105.965c10.793-13.509,17.962-23.736,21.915-31.268c4.622-8.85,6.862-16.753,6.862-24.188
					c0-9.878-3.099-19.326-9.211-28.084c-9.021-12.853-19.016-15.544-25.816-15.544c-4.715,0-13.529,1.709-20.301,12.968
					c-8.618,11.675-16.076,21.457-22.172,29.083c-6.519,8.157-12.86,16.287-18.848,24.166c-5.783,7.604-12.83,16.217-20.942,25.593
					c-8.271,9.534-18.897,22.091-31.572,37.308l-29.487,33.289l-0.029,0.033l-0.028,0.032
					c-12.965,14.82-27.891,30.059-44.364,45.293c-16.604,15.357-33.076,29.612-48.958,42.369
					c-15.766,12.679-30.126,23.142-42.69,31.104c-4.344,2.756-7.833,4.773-10.604,6.25c0.87-1.757,2.556-4.749,5.779-9.482
					c4.648-6.811,11.839-16.34,21.364-28.311l9.044-11.382c8.602-10.824,19.12-24.062,31.548-39.714l75.366-93.494
					c7.067-8.353,12.876-15.663,17.269-21.73c4.42-6.126,7.89-11.252,10.619-15.688c3.458-5.637,5.607-10.724,6.581-15.567
					l0.005-0.026l0.005-0.027c0.809-4.107,1.219-8.233,1.219-12.263c0-10.735-3.055-20.184-9.081-28.083
					C1330.779,1813.304,1321.486,1808.603,1310.736,1808.603L1310.736,1808.603z"/>
			</g>
			<g>
				<path d="M1367.114,2396.33c-7.345,0-13.875-3.653-19.41-10.859c-5.087-6.665-7.66-14.043-7.66-21.943
					c0-5.525,1.609-11.78,4.918-19.123c3.021-6.719,8.017-15.595,15.27-27.132c7.145-11.352,17.239-25.52,30.004-42.113
					c12.666-16.466,28.614-37.104,48.756-63.098l100.093-130.028c-0.821-2.925-1.48-5.394-1.965-7.368
					c-0.776-3.063-1.158-6.751-1.158-11.228c0-10.628,2.822-21.65,8.388-32.761l1.936-3.865h24.223l-3.846,9.603
					c-3.645,9.101-5.512,15.469-6.408,19.893l106.151-133.768c5.131-7.054,10.349-13.737,15.511-19.867
					c4.96-5.892,10.002-12.352,14.985-19.201l0.156-0.206c7.244-9.221,14.345-18.097,21.104-26.383
					c7.053-8.66,14.102-17.471,20.947-26.182l5.572-7.164l-8.287,9.049c-16.948,18.522-32.756,35.3-46.984,49.863
					c-14.264,14.581-28.269,28.747-41.631,42.107c-13.916,13.914-31.145,30.822-51.209,50.252l-0.161,0.151l-16.339,14.854
					l-12.806-17.923l86.385-86.384c17.06-17.059,32.599-33.078,46.187-47.614c13.202-14.121,27.174-29.217,41.528-44.869
					c14.422-15.743,32.086-35.334,52.498-58.226l19.215-22.097l0.171-0.171c5.453-5.458,9.506-7.786,13.553-7.786
					c8.63,0,14.501,9.286,16.431,12.338c4.525,7.178,6.817,14.062,6.817,20.465c0,12.245-7.521,30.624-22.993,56.187
					c-10.31,17.028-25.127,38.621-44.228,64.46c7.617-6.617,14.967-12.692,21.987-18.172c13.241-10.332,24.893-18.533,34.633-24.377
					c10.911-6.55,19.04-9.601,25.582-9.601c11.943,0,21.345,7.864,27.944,23.374c5.763,13.595,8.683,30.912,8.683,51.481
					c0,34.986-10.749,69.308-31.948,102.009c-20.925,32.28-52.633,63.857-94.244,93.855c-26.539,18.775-54.719,33.847-83.81,44.831
					c-29.344,11.081-56.543,16.699-80.842,16.699c-7.717,0-13.972-0.713-19.12-2.179c-3.847-1.108-8.495-2.941-14.118-5.571
					l-193.542,256.492l-0.145,0.168C1378.691,2393.26,1373.046,2396.33,1367.114,2396.33z M1591.73,2111.93
					c4.346,1.882,8.761,2.806,13.351,2.806c13.43,0,29.835-5.183,48.76-15.404c19.525-10.536,39.844-24.877,60.395-42.625
					c20.61-17.798,40.75-38.574,59.86-61.752c18.988-23.031,35.911-47.37,50.297-72.339c3.224-7.068,6.837-13.952,10.743-20.466
					c3.774-6.282,7.583-12.948,11.323-19.818l0.164-0.3l0.191-0.282c11.248-16.579,16.951-31.656,16.951-44.812
					c0-4.553-0.85-6.318-1.215-6.866c-0.163-0.243-0.293-0.439-1.136-0.466c-0.604,0.143-3.475,1.046-11.616,6.468
					c-7.471,4.991-16.297,11.613-26.226,19.677c-10.127,8.23-21.296,17.804-33.194,28.454
					c-12.013,10.755-24.137,22.241-36.037,34.14c-18.314,18.314-35.748,36.708-51.818,54.669
					c-16.038,17.924-33.772,39.494-52.71,64.11L1591.73,2111.93z"/>
				<path fill="#FFFFFF" d="M1826.805,1711.743c3.181,0,6.689,3.028,10.514,9.078c3.822,6.063,5.734,11.631,5.734,16.725
					c0,10.839-7.331,28.356-21.981,52.562c-14.664,24.222-38.228,57.342-70.721,99.395l-28.671,37.272
					c15.29-15.92,30.417-30.896,45.396-44.919c14.963-14.006,28.983-26.117,42.051-36.316
					c13.051-10.185,24.368-18.158,33.927-23.893c9.556-5.736,16.874-8.604,21.98-8.604c8.916,0,16.084,6.379,21.503,19.115
					c5.406,12.754,8.124,29.001,8.124,48.74c0,67.542-41.096,130.934-123.285,190.186c-26.131,18.487-53.52,33.136-82.189,43.961
					c-28.672,10.827-54.805,16.248-78.369,16.248c-7.017,0-12.751-0.644-17.203-1.911c-4.464-1.286-10.512-3.823-18.158-7.646
					l-196.874,260.907c-3.822,4.45-7.646,6.688-11.468,6.688c-5.092,0-9.706-2.717-13.858-8.123
					c-4.137-5.42-6.212-11.318-6.212-17.68c0-4.463,1.434-9.887,4.3-16.247c2.867-6.375,7.811-15.142,14.814-26.282
					c7.019-11.152,16.888-25.012,29.626-41.57c12.752-16.578,28.998-37.601,48.741-63.078l102.259-132.842
					c-1.285-4.45-2.239-7.96-2.867-10.514c-0.642-2.537-0.956-5.734-0.956-9.557c0-9.556,2.538-19.427,7.646-29.626h9.557
					c-5.107,12.753-7.647,22.311-7.647,28.671c0,1.911,0,3.674,0,5.256c0,1.597,0.628,3.986,1.913,7.169l117.551-148.133
					c5.092-7.006,10.185-13.53,15.291-19.594c5.092-6.048,10.184-12.572,15.291-19.592c7.004-8.914,14.007-17.681,21.024-26.282
					c7.004-8.601,14.008-17.35,21.027-26.281l40.14-51.608c3.179-5.091,6.689-9.705,10.511-13.855
					c3.823-4.137,7.316-8.439,10.513-12.903l3.822-5.734c0.628-0.627,0.958-1.581,0.958-2.866c0-1.271-0.958-1.911-2.867-1.911
					c-1.285,0-2.242,0.327-2.867,0.954l-5.735,6.69c-28.044,30.583-50.652,55.281-67.855,74.066
					c-17.203,18.801-32.823,35.362-46.829,49.699c-14.022,14.335-27.879,28.356-41.573,42.049
					c-13.708,13.707-30.746,30.435-51.129,50.174l-10.513,9.557l-4.78-6.689l15.292-15.29c27.387-27.386,49.696-49.698,66.899-66.9
					c17.203-17.202,32.643-33.12,46.351-47.784c13.695-14.648,27.552-29.629,41.573-44.918
					c14.007-15.291,31.538-34.719,52.563-58.298l19.114-21.979C1822.026,1713.651,1824.893,1711.743,1826.805,1711.743
					 M1605.082,2121.735c14.65,0,32.017-5.405,52.087-16.245c20.07-10.83,40.616-25.326,61.643-43.486
					c21.024-18.156,41.244-39.018,60.686-62.597c19.428-23.564,36.466-48.1,51.129-73.589c3.181-7.004,6.691-13.694,10.514-20.069
					c3.822-6.362,7.646-13.051,11.468-20.07c12.096-17.829,18.158-34.077,18.158-48.741c0-9.557-3.194-14.335-9.556-14.335
					c-2.555,0-7.646,2.554-15.292,7.645c-7.646,5.107-16.575,11.798-26.759,20.069c-10.2,8.289-21.354,17.845-33.45,28.672
					c-12.111,10.843-24.222,22.311-36.317,34.405c-18.486,18.486-35.839,36.794-52.085,54.952
					c-16.248,18.158-33.926,39.662-53.042,64.509l-63.076,81.235C1588.836,2119.197,1596.795,2121.735,1605.082,2121.735
					 M1826.805,1697.743c-7.644,0-13.644,4.974-18.504,9.838l-0.343,0.343l-0.318,0.366l-19.06,21.917
					c-20.362,22.835-37.983,42.378-52.376,58.09c-14.337,15.633-28.293,30.713-41.477,44.814
					c-13.535,14.479-29.02,30.441-46.023,47.445l-26.486,26.486l-40.413,40.414l-15.292,15.289l-8.389,8.388l6.896,9.651l4.78,6.689
					l9.155,12.813l11.653-10.593l10.513-9.557l0.164-0.148l0.159-0.154c18.307-17.729,34.261-33.363,47.498-46.547l-68.66,86.522
					h-20.114h-9.557h-8.646l-3.872,7.729c-6.058,12.094-9.129,24.171-9.129,35.896c0,5.038,0.448,9.271,1.37,12.937
					c0.299,1.214,0.659,2.602,1.078,4.155l-97.978,127.28c-20.11,25.952-36.063,46.598-48.744,63.082
					c-12.899,16.768-23.121,31.117-30.378,42.649c-7.43,11.819-12.575,20.975-15.733,27.997c-3.721,8.256-5.532,15.452-5.532,21.989
					c0,9.471,3.056,18.277,9.083,26.174c8.654,11.27,18.362,13.629,24.986,13.629c8.065,0,15.497-3.891,22.088-11.565l0.288-0.336
					l0.267-0.354l190.052-251.867c3.739,1.591,7.028,2.791,9.929,3.627c5.822,1.657,12.703,2.458,21.078,2.458
					c25.146,0,53.178-5.771,83.315-17.15c29.647-11.195,58.356-26.547,85.329-45.63l0.051-0.036l0.05-0.036
					c42.318-30.508,74.625-62.714,96.024-95.726c21.946-33.854,33.074-69.456,33.074-105.816c0-21.513-3.107-39.75-9.234-54.204
					c-9.726-22.857-24.07-27.651-34.393-27.651c-7.864,0-17.138,3.368-29.186,10.6c-5.649,3.39-11.909,7.54-18.721,12.409
					c6.131-9.059,11.444-17.299,15.921-24.694c16.378-27.059,24.005-46.063,24.005-59.812c0-7.745-2.655-15.885-7.891-24.19
					C1846.713,1709.482,1839.292,1697.743,1826.805,1697.743L1826.805,1697.743z M1603.871,2107.707l51.453-66.267l0.019-0.024
					l0.019-0.024c18.833-24.479,36.456-45.915,52.379-63.711c15.984-17.865,33.328-36.164,51.552-54.388
					c11.808-11.807,23.838-23.204,35.756-33.874c11.815-10.576,22.898-20.077,32.94-28.237c9.758-7.926,18.408-14.418,25.707-19.293
					c1.095-0.729,2.077-1.364,2.956-1.917c-0.823,11.044-6.07,23.758-15.629,37.848l-0.383,0.564l-0.327,0.6
					c-3.694,6.784-7.453,13.364-11.173,19.556c-3.99,6.655-7.678,13.668-10.975,20.865c-14.158,24.535-30.799,48.451-49.47,71.097
					c-18.86,22.874-38.722,43.366-59.034,60.907c-20.167,17.417-40.065,31.467-59.141,41.762
					c-17.896,9.666-33.183,14.565-45.438,14.565C1604.677,2107.735,1604.273,2107.727,1603.871,2107.707L1603.871,2107.707z"/>
			</g>
			<g>
				<path d="M2027.486,2134.469c-16.523,0-30.572-8.975-41.757-26.675c-10.545-16.648-15.895-36.718-15.895-59.646
					c0-15.825,1.678-30.546,4.988-43.753c3.329-13.327,8.721-26.478,16.026-39.081c7.24-12.504,16.73-25.001,28.207-37.14
					c11.271-11.921,25.176-24.521,41.328-37.45c12.929-10.336,27.002-20.153,41.831-29.183
					c14.865-9.047,29.902-17.057,44.696-23.807c14.904-6.804,29.383-12.23,43.034-16.129c13.941-3.984,26.164-6.004,36.327-6.004
					c30.206,0,34.716,19.355,34.716,30.893c0,3.438-0.179,6.622-0.533,9.464c-0.365,2.848-1.518,9.119-3.428,18.668l-1.125,5.627
					h-8.826c2.259,3.951,3.398,8.325,3.398,13.069c0,6.874-2.573,15.53-7.867,26.465c-4.858,10.056-11.258,21.383-19.02,33.662
					c-7.705,12.207-16.694,24.794-26.717,37.408c-7.886,9.91-15.935,19.399-24.006,28.306c4.097-0.016,8.779-1.117,13.896-3.272
					c5.396-2.266,12.064-6.59,19.824-12.854c8.206-6.637,18.063-15.224,29.293-25.516c11.341-10.397,24.706-23.925,39.724-40.205
					l4.576-4.961l17.201,14.745l-4.69,5.324c-23.779,26.988-46.301,48.685-66.939,64.485
					c-21.844,16.726-39.492,24.856-53.953,24.856c-5.604,0-10.693-1.204-15.2-3.591c-6.526,6.968-12.272,12.937-17.123,17.788
					l-14.336,14.335c-3.837,3.839-7.462,7.299-10.772,10.283c-3.465,3.107-6.655,5.821-9.762,8.304
					c-14.874,12.925-29.473,23.741-43.393,32.149C2046.052,2130.2,2035.335,2134.469,2027.486,2134.469z M2230.096,1839.158
					c-10.031,0-24.005,5.88-41.536,17.475c-18.322,12.109-40.025,30.021-64.51,53.237c-16.909,16.294-31.009,31.498-41.867,45.151
					c-10.891,13.691-21.461,29.471-31.417,46.899c-7.798,13.803-14.556,25.71-20.07,35.362c-4.921,8.607-8.637,16.029-11.044,22.061
					c-2.386,5.96-4.038,11.045-4.914,15.12c-0.847,3.961-1.277,8.614-1.277,13.823c0,6.82,1.741,12.493,5.321,17.344
					c4.579,6.237,8.403,6.237,9.66,6.237c0.381-0.027,4.657-0.577,21.136-10.882c12.406-7.751,24.676-16.719,36.474-26.655
					l0.186-0.151c8.595-6.75,16.679-14.212,24.029-22.178c7.204-7.797,17.504-19.595,30.637-35.091v-8.903
					c0-12.256,3.044-26.588,9.047-42.598c5.855-15.611,12.938-30.599,21.053-44.548c8.168-14.051,16.977-26.343,26.181-36.53
					c10.405-11.521,19.607-17.121,28.131-17.121c3.245,0,6.326,0.593,9.175,1.748c2.409-9.491,2.938-14.32,2.938-16.73
					C2237.43,1839.158,2232.659,1839.158,2230.096,1839.158z"/>
				<path fill="#FFFFFF" d="M2226.271,1822.603c18.473,0,27.716,7.975,27.716,23.893c0,3.196-0.164,6.063-0.479,8.601
					c-0.328,2.552-1.434,8.602-3.345,18.158h-9.556c2.54-9.557,3.822-16.559,3.822-21.025c0-13.38-4.778-20.07-14.334-20.07
					c-11.469,0-26.612,6.211-45.397,18.637c-18.8,12.425-40.616,30.434-65.464,53.996c-17.203,16.577-31.389,31.866-42.529,45.873
					c-11.155,14.023-21.833,29.956-32.017,47.785c-8.287,14.666-14.978,26.447-20.07,35.362c-5.106,8.93-8.928,16.575-11.468,22.938
					c-2.553,6.377-4.3,11.796-5.256,16.245c-0.955,4.465-1.434,9.558-1.434,15.293c0,8.288,2.225,15.453,6.689,21.501
					c4.451,6.063,9.558,9.08,15.292,9.08c3.823,0,12.094-3.972,24.848-11.947c12.738-7.958,25.162-17.036,37.272-27.236
					c8.917-7.003,17.203-14.647,24.85-22.936c7.645-8.273,18.473-20.698,32.493-37.272v-11.469c0-11.47,2.867-24.848,8.601-40.14
					c5.735-15.291,12.573-29.775,20.549-43.485c7.959-13.692,16.394-25.474,25.324-35.358c8.915-9.87,16.562-14.813,22.937-14.813
					c5.092,0,9.394,1.91,12.902,5.733c3.495,3.823,5.256,8.287,5.256,13.379c0,5.733-2.389,13.544-7.167,23.415
					c-4.777,9.887-10.991,20.875-18.636,32.972c-7.645,12.111-16.411,24.372-26.281,36.794
					c-9.886,12.424-19.92,24.058-30.104,34.883c5.092,3.196,8.915,4.777,11.468,4.777c5.092,0,10.662-1.268,16.725-3.821
					c6.047-2.539,13.215-7.167,21.503-13.857c8.271-6.69,18.157-15.291,29.626-25.803c11.468-10.514,24.848-24.042,40.14-40.619
					l6.689,5.734c-23.578,26.761-45.56,47.95-65.942,63.555c-20.399,15.62-36.96,23.415-49.698,23.415
					c-6.377,0-11.796-1.913-16.246-5.734c-8.289,8.931-15.293,16.248-21.027,21.982c-5.734,5.733-10.512,10.511-14.336,14.334
					c-3.821,3.822-7.331,7.168-10.511,10.035c-3.197,2.867-6.376,5.586-9.557,8.123c-14.664,12.752-28.836,23.266-42.529,31.537
					c-13.708,8.287-23.744,12.424-30.104,12.424c-14.021,0-25.969-7.794-35.839-23.414c-9.884-15.604-14.812-34.24-14.812-55.906
					c0-15.294,1.582-29.299,4.778-42.051c3.181-12.738,8.273-25.164,15.292-37.272c7.004-12.097,16.082-24.042,27.237-35.842
					c11.14-11.781,24.683-24.04,40.616-36.794c12.739-10.184,26.432-19.739,41.097-28.669c14.648-8.915,29.297-16.726,43.961-23.417
					c14.648-6.687,28.671-11.945,42.05-15.767C2205.247,1824.514,2216.715,1822.603,2226.271,1822.603 M2226.271,1808.603
					c-10.966,0-23.479,2.052-38.251,6.273c-13.985,3.994-28.795,9.543-44.018,16.491c-15.043,6.864-30.327,15.005-45.426,24.194
					c-15.085,9.186-29.404,19.175-42.561,29.692c-16.411,13.137-30.555,25.957-42.046,38.111
					c-11.85,12.534-21.667,25.469-29.181,38.445c-7.631,13.164-13.271,26.926-16.759,40.895
					c-3.446,13.752-5.195,29.044-5.195,45.443c0,24.275,5.714,45.605,16.985,63.398c15.627,24.729,34.547,29.922,47.667,29.922
					c9.181,0,21.048-4.59,37.348-14.443c14.225-8.593,29.112-19.614,44.252-32.762c3.175-2.54,6.429-5.309,9.938-8.456
					c3.427-3.091,7.141-6.635,11.065-10.56l13.188-13.187l1.146-1.146c4.045-4.046,8.699-8.853,13.896-14.354
					c4.172,1.467,8.673,2.205,13.478,2.205c16.057,0,35.098-8.603,58.209-26.3c20.998-16.075,43.855-38.085,67.935-65.415
					l9.382-10.647l-10.775-9.236l-6.689-5.734l-10.249-8.786l-9.153,9.923c-14.885,16.137-28.111,29.524-39.31,39.792
					c-11.123,10.194-20.871,18.686-28.97,25.237c-1.666,1.345-3.222,2.549-4.674,3.628c1.62-1.984,3.234-3.988,4.842-6.008
					c10.186-12.82,19.324-25.615,27.165-38.038c7.897-12.495,14.427-24.056,19.403-34.354c5.76-11.897,8.562-21.552,8.562-29.506
					c0-2.065-0.18-4.093-0.536-6.069h4.702l2.251-11.254c1.969-9.846,3.115-16.101,3.503-19.121l0.003-0.028l0.003-0.027
					c0.389-3.128,0.586-6.603,0.586-10.328c0-15.17-6.411-23.882-11.789-28.519
					C2248.985,1811.757,2238.916,1808.603,2226.271,1808.603L2226.271,1808.603z M2128.907,1914.912
					c24.173-22.919,45.54-40.562,63.51-52.438c20.026-13.247,31.336-16.213,37.357-16.313c0.288,0.969,0.656,2.837,0.656,6.067
					c0,0.968-0.146,3.344-1.148,8.218c-1.298-0.156-2.621-0.235-3.966-0.235c-10.617,0-21.518,6.355-33.327,19.43
					c-9.528,10.547-18.625,23.233-27.038,37.707c-8.31,14.282-15.562,29.627-21.554,45.604c-6.299,16.799-9.493,31.957-9.493,45.056
					v6.334c-12.277,14.458-21.947,25.517-28.775,32.906c-7.104,7.699-14.912,14.905-23.214,21.426l-0.188,0.148l-0.183,0.154
					c-11.545,9.725-23.547,18.496-35.671,26.071c-11.45,7.16-16.32,9.18-17.937,9.727c-1.356-0.47-2.986-2.571-3.5-3.271
					c-2.682-3.634-3.975-7.947-3.975-13.217c0-4.719,0.378-8.878,1.124-12.364c0.79-3.679,2.326-8.384,4.563-13.971
					c2.292-5.743,5.865-12.868,10.624-21.191c5.521-9.664,12.279-21.572,20.091-35.397c9.774-17.107,20.137-32.58,30.799-45.983
					C2098.321,1945.977,2112.197,1931.017,2128.907,1914.912L2128.907,1914.912z"/>
			</g>
			<g>
				<path d="M2646.759,2134.469c-8.321,0-19.695-3.898-26.628-22.471c-4.798-12.854-7.131-31.238-7.131-56.205
					c0-17.673,1.833-34.298,5.448-49.413c3.629-15.208,9.502-29.978,17.458-43.896c7.877-13.789,18.344-27.589,31.109-41.013
					c12.631-13.271,28.156-27.164,46.145-41.297c12.92-10.331,26.517-19.832,40.364-28.202
					c13.777-8.324,27.102-15.799,39.606-22.219c12.75-6.526,24.834-11.654,35.925-15.245c11.669-3.768,21.438-5.599,29.87-5.599
					c20.699,0,33.029,10.533,35.292,29.854c2.248-3.088,4.54-6.205,6.872-9.346c8.23-11.082,18.089-24.226,30.14-40.183
					c8.412-11.144,18.043-23.916,28.899-38.313l13.626-18.069c16.392-21.756,36.734-48.203,62.189-80.849l0.138-0.177l0.149-0.167
					c4.892-5.508,9.37-11.222,13.313-16.984c4.16-6.082,8.532-12.077,12.997-17.821c2.775-4.163,4.834-6.869,6.471-8.505
					l2.872-2.871c0.164-0.164,0.527-0.564,1.034-1.323c0.606-0.924,1.573-2.377,2.878-4.315l0.146-0.21
					c5.45-7.493,9.836-12.696,13.408-15.905c4.483-4.041,9.276-6.095,14.237-6.095c7.343,0,13.872,3.653,19.407,10.859
					c5.088,6.668,7.661,14.045,7.661,21.946c0,4.194-1.123,8.849-3.435,14.229c-2.104,4.907-6.222,11.855-12.586,21.238
					c-6.214,9.147-15.107,21.598-26.435,37.01c-11.428,15.565-26.782,35.776-46.938,61.786
					c-42.848,56.076-78.374,102.694-105.562,138.52c-27.089,35.691-46.682,61.497-58.775,77.415l-9.585,12.459
					c-34.224,45.005-58.584,78.179-72.381,98.567c-15.349,22.671-18.886,31.846-19.637,35.273
					c2.883-0.523,9.394-2.652,23.329-10.425c13.244-7.395,26.211-16.458,38.537-26.936l0.119-0.102l0.123-0.096
					c5.408-4.196,10.316-8.154,14.59-11.763c3.88-3.28,9.325-8.576,16.184-15.74c6.907-7.218,16.654-17.923,28.968-31.818
					c14.052-15.841,32.073-36.011,52.118-58.332l18.046-19.342l17.157,14.703l-18.041,20.615
					c-22.329,25.44-40.524,45.89-54.087,60.788c-12.98,14.241-23.276,25.503-30.605,33.476c-7.632,8.3-13.827,14.321-18.942,18.411
					c-4.99,3.992-10.917,8.798-17.612,14.282l-0.154,0.123c-14.29,11.047-27.861,19.812-40.337,26.051
					c-13.198,6.605-23.913,9.817-32.755,9.817c-9.396,0-25.159-4.759-25.159-36.627c0-10.966,1.169-22.349,3.489-34.038
					c-4.609,5.02-9.282,9.899-13.998,14.616c-11.893,11.894-23.321,22.341-33.966,31.051c-10.792,8.829-20.977,15.835-30.273,20.821
					C2661.991,2131.854,2653.721,2134.469,2646.759,2134.469z M2861.792,1833.424c-5.077,0-14.625,2.508-31.277,14.458
					c-14.223,10.193-29.67,23.756-45.916,40.312c-16.362,16.669-33.086,35.625-49.709,56.341
					c-16.621,20.688-31.763,41.407-45.007,61.582c-13.159,20.062-24.093,39.232-32.497,56.976
					c-8.114,17.129-12.228,31.071-12.228,41.441c0,4.132,0.83,5.614,1.083,5.97c0.11,0.153,0.294,0.411,1.475,0.411
					c4.739,0,16.468-3.256,41.782-25.063c20.355-17.536,44.059-42.043,70.453-72.841c37.816-45.378,66.111-82.3,84.038-109.665
					c17.315-26.427,26.095-46.518,26.095-59.717C2870.084,1834.191,2866.329,1833.424,2861.792,1833.424z"/>
				<path fill="#FFFFFF" d="M3103.587,1584.631c5.089,0,9.705,2.72,13.856,8.124c4.137,5.421,6.212,11.322,6.212,17.682
					c0,3.196-0.956,7.02-2.866,11.468c-1.914,4.464-5.9,11.156-11.947,20.07c-6.065,8.929-14.814,21.191-26.282,36.794
					c-11.468,15.62-27.089,36.169-46.831,61.644c-43.334,56.713-78.53,102.9-105.604,138.576
					c-27.088,35.689-46.68,61.494-58.773,77.412l-9.559,12.425c-34.406,45.244-58.627,78.219-72.631,98.913
					c-14.023,20.713-21.027,34.258-21.027,40.618c0,3.821,1.911,5.733,5.734,5.733c5.091,0,14.487-3.822,28.193-11.467
					c13.696-7.646,26.909-16.875,39.661-27.716c5.734-4.45,10.663-8.439,14.814-11.945c4.137-3.497,9.706-8.917,16.724-16.247
					c7.005-7.319,16.725-17.995,29.15-32.017c12.425-14.007,29.774-33.451,52.087-58.298l13.378-14.337l6.691,5.734l-13.383,15.293
					c-22.937,26.132-40.946,46.351-53.996,60.686c-13.066,14.335-23.265,25.489-30.582,33.45
					c-7.33,7.972-13.378,13.857-18.16,17.681c-4.776,3.821-10.676,8.601-17.677,14.335c-14.022,10.841-27.088,19.278-39.187,25.328
					c-12.108,6.061-21.979,9.078-29.624,9.078c-12.113,0-18.159-9.871-18.159-29.627c0-17.83,3.18-36.63,9.559-56.387l1.909-5.734
					c-10.843,13.381-22.145,25.967-33.926,37.75c-11.796,11.797-22.937,21.981-33.449,30.582
					c-10.516,8.604-20.235,15.289-29.15,20.071c-8.929,4.777-16.248,7.165-21.982,7.165c-17.843,0-26.759-23.892-26.759-71.676
					c0-17.204,1.749-33.122,5.256-47.785c3.495-14.648,9.08-28.672,16.727-42.05c7.644-13.381,17.679-26.596,30.104-39.663
					c12.422-13.051,27.55-26.595,45.396-40.616c12.738-10.185,25.951-19.429,39.661-27.716
					c13.691-8.271,26.757-15.603,39.183-21.981c12.426-6.361,24.042-11.303,34.884-14.813c10.824-3.495,20.07-5.259,27.714-5.259
					c19.112,0,28.671,9.887,28.671,29.629c0,5.733-1.285,12.424-3.824,20.07c7.005-10.184,14.652-20.861,22.938-32.018
					c8.273-11.141,18.311-24.52,30.105-40.138c11.781-15.607,25.952-34.406,42.528-56.386
					c16.563-21.983,37.273-48.893,62.121-80.759c5.093-5.733,9.709-11.617,13.856-17.681c4.137-6.048,8.439-11.945,12.903-17.68
					c2.54-3.822,4.45-6.362,5.735-7.646c1.27-1.27,2.222-2.224,2.866-2.866c0.625-0.625,1.271-1.432,1.91-2.388
					c0.63-0.959,1.582-2.391,2.867-4.301c5.094-7.004,9.23-11.945,12.425-14.814
					C3097.208,1586.066,3100.389,1584.631,3103.587,1584.631 M2647.717,2117.914c10.184,0,25.638-8.916,46.351-26.76
					c20.696-17.83,44.439-42.365,71.199-73.589c38.229-45.874,66.422-82.669,84.578-110.385
					c18.16-27.716,27.239-48.889,27.239-63.553c0-11.47-5.107-17.204-15.292-17.204c-8.929,0-20.71,5.259-35.358,15.771
					c-14.667,10.512-30.273,24.222-46.831,41.097c-16.577,16.888-33.301,35.837-50.172,56.862
					c-16.891,21.024-32.017,41.736-45.399,62.121c-13.378,20.396-24.37,39.66-32.972,57.821
					c-8.601,18.156-12.901,32.968-12.901,44.438C2638.158,2113.463,2641.34,2117.914,2647.717,2117.914 M3103.587,1570.631
					c-6.745,0-13.115,2.659-18.934,7.904c-3.923,3.523-8.631,9.083-14.373,16.979l-0.15,0.207l-0.144,0.212
					c-1.297,1.929-2.266,3.385-2.914,4.371c-0.111,0.165-0.188,0.266-0.226,0.313l-1.495,1.495l-1.292,1.291
					c-1.964,1.964-4.196,4.861-7.202,9.357c-4.498,5.795-8.9,11.837-13.093,17.965c-3.775,5.521-8.071,11.001-12.768,16.287
					l-0.298,0.336l-0.275,0.354c-25.48,32.678-45.847,59.154-62.263,80.943l-13.684,18.145c-10.83,14.362-20.44,27.107-28.837,38.23
					c-11.289,14.947-20.659,27.435-28.573,38.074c-1.712-3.57-3.906-6.745-6.578-9.507c-7.496-7.748-18.116-11.677-31.564-11.677
					c-9.174,0-19.646,1.941-32.017,5.937c-11.455,3.708-23.887,8.979-36.961,15.673c-12.661,6.5-26.129,14.055-40.043,22.461
					c-14.094,8.519-27.926,18.183-41.116,28.726c-18.233,14.328-33.994,28.438-46.842,41.937
					c-13.158,13.838-23.963,28.092-32.12,42.371c-8.284,14.493-14.404,29.885-18.188,45.745
					c-3.741,15.641-5.638,32.813-5.638,51.034c0,25.817,2.477,45.003,7.573,58.653c8.777,23.512,24.56,27.022,33.187,27.022
					c8.142,0,17.493-2.885,28.587-8.82c9.707-5.207,20.27-12.466,31.411-21.58c10.56-8.641,21.858-18.942,33.599-30.636
					c-0.371,4.589-0.557,9.121-0.557,13.589c0,39.376,22.49,43.627,32.159,43.627c9.956,0,21.695-3.454,35.891-10.559
					c12.876-6.439,26.835-15.447,41.482-26.771l0.156-0.121l0.152-0.125c6.68-5.471,12.585-10.26,17.552-14.233
					c5.393-4.312,11.845-10.571,19.72-19.136c7.347-7.994,17.649-19.263,30.623-33.496c13.597-14.936,31.82-35.417,54.171-60.881
					l13.396-15.309l9.316-10.646l-10.741-9.205l-6.691-5.734l-10.19-8.732l-9.156,9.812l-13.378,14.338l-0.091,0.098l-0.089,0.1
					c-20.058,22.335-38.089,42.516-52.145,58.361c-12.261,13.835-21.946,24.475-28.791,31.627
					c-6.688,6.984-11.952,12.111-15.647,15.235c-4.195,3.542-9.028,7.438-14.36,11.576l-0.247,0.191l-0.238,0.202
					c-11.979,10.184-24.568,18.984-37.418,26.159c-2.186,1.219-4.164,2.284-5.954,3.216c2.69-4.613,6.389-10.52,11.472-18.028
					c13.724-20.28,38-53.337,72.16-98.259l9.533-12.392l0.025-0.033l0.025-0.033c12.095-15.919,31.688-41.726,58.777-77.418
					c27.183-35.818,62.695-82.419,105.554-138.509c20.179-26.038,35.557-46.281,47.016-61.89
					c11.374-15.476,20.318-27.997,26.578-37.212c6.623-9.765,10.95-17.096,13.233-22.42c2.689-6.265,3.999-11.823,3.999-16.985
					c0-9.471-3.056-18.277-9.082-26.175C3119.914,1572.989,3110.209,1570.631,3103.587,1570.631L3103.587,1570.631z
					 M2652.201,2102.863c0.333-6.723,2.737-18.251,11.511-36.774c8.267-17.453,19.042-36.34,32.026-56.136
					c13.119-19.984,28.128-40.52,44.607-61.031c16.482-20.542,33.05-39.321,49.249-55.824
					c15.965-16.271,31.103-29.567,44.995-39.524c16.54-11.868,24.534-13.149,27.203-13.149c0.418,0,0.752,0.02,1.013,0.047
					c0.135,0.6,0.279,1.606,0.279,3.157c0,8.121-4.328,24.408-24.949,55.88c-17.771,27.128-45.884,63.807-83.561,109.02
					c-26.14,30.496-49.572,54.727-69.645,72.021C2667.526,2095.54,2657.441,2100.938,2652.201,2102.863L2652.201,2102.863z"/>
			</g>
			<g>
				<path d="M3074.911,2134.469c-25.429,0-55.741-11.826-55.741-68.164c0-19.543,1.661-37.236,4.937-52.59
					c3.299-15.529,8.66-30.442,15.934-44.318c7.244-13.835,16.743-27.338,28.231-40.132c11.315-12.621,25.563-25.894,42.34-39.442
					c11.682-9.729,24.987-19.093,39.546-27.828c14.469-8.681,28.795-16.494,42.581-23.224c13.798-6.743,26.913-12.314,38.978-16.558
					c12.665-4.448,22.646-6.61,30.515-6.61c9.616,0,17.604,3.315,23.738,9.854c6.018,6.427,9.065,14.146,9.065,22.948
					c0,10.563-2.969,22.04-8.823,34.114c-5.63,11.583-13.145,23.28-22.339,34.77c-9.168,11.455-19.917,22.536-31.948,32.938
					c-12.159,10.515-25.309,19.502-39.082,26.711c-13.852,7.266-28.127,12.47-42.426,15.464
					c-13.297,2.779-29.712,4.554-48.836,5.279c-15.352,22.033-27.691,42.011-36.698,59.418
					c-11.2,21.665-13.552,32.557-13.552,37.878c0,5.018,1.666,8.807,5.243,11.924c3.817,3.348,9.186,4.968,16.428,4.968
					c12.292,0,26.56-3.794,42.406-11.277c16.249-7.662,32.615-18.423,48.646-31.983c4.7-4.041,8.557-7.437,11.748-10.344
					c3.357-3.053,8.348-8.203,14.838-15.313c5.768-6.308,13.767-15.104,24.025-26.383l5.115-5.625
					c12.529-13.777,30.512-33.686,53.45-59.177l16.656-19.217l18.896,14.179l-18.346,20.973
					c-23.979,26.703-40.997,45.545-53.618,59.363c-12.205,13.373-23.287,25.448-32.046,34.917
					c-8.105,8.741-15.025,15.656-20.572,20.561c-5.669,4.996-11.409,9.753-17.069,14.144
					C3134.122,2121.771,3103.113,2134.469,3074.911,2134.469z M3263.188,1838.204c-1.46,0-7.536,1-24.431,13.86
					c-13.109,9.992-27.894,22.552-43.94,37.328c-16.093,14.838-32.184,31.09-47.824,48.299
					c-11.169,12.29-20.962,24.09-29.251,35.236c4.978-0.919,9.685-1.99,14.085-3.205c8.737-2.406,17.473-5.778,25.967-10.025
					c8.483-4.232,17.319-9.661,26.268-16.137c9.123-6.613,19.432-14.701,30.637-24.038c18.041-15.55,32.194-29.694,42.066-42.039
					c9.002-11.26,13.76-20.984,13.76-28.121c0-3.459-0.891-6.231-2.724-8.475
					C3265.848,1838.511,3264.309,1838.204,3263.188,1838.204z"/>
				<path fill="#FFFFFF" d="M3262.23,1822.603c7.645,0,13.857,2.554,18.634,7.645c4.782,5.107,7.17,11.155,7.17,18.158
					c0,9.558-2.72,19.919-8.122,31.06c-5.422,11.157-12.592,22.312-21.506,33.45c-8.929,11.156-19.279,21.831-31.061,32.016
					c-11.795,10.2-24.368,18.801-37.75,25.805c-13.378,7.018-26.923,11.947-40.614,14.814c-13.71,2.866-30.746,4.628-51.133,5.255
					c-16.574,23.58-29.625,44.604-39.184,63.077c-9.558,18.487-14.335,32.178-14.335,41.095c0,7.02,2.54,12.753,7.645,17.201
					c5.094,4.467,12.098,6.69,21.026,6.69c13.379,0,28.505-3.972,45.396-11.947c16.875-7.958,33.6-18.946,50.177-32.97
					c4.449-3.824,8.435-7.317,11.942-10.514c3.496-3.179,8.602-8.438,15.293-15.769c6.691-7.317,16.396-17.995,29.149-32.017
					c12.738-14.007,30.581-33.763,53.519-59.252l12.426-14.337l7.643,5.734l-13.378,15.293
					c-22.312,24.847-40.139,44.604-53.519,59.252c-13.382,14.663-24.059,26.282-32.016,34.884
					c-7.977,8.603-14.664,15.291-20.07,20.07c-5.421,4.777-10.989,9.408-16.724,13.857c-31.87,24.221-61.167,36.314-87.928,36.314
					c-32.491,0-48.741-20.382-48.741-61.164c0-19.115,1.587-36.151,4.782-51.129c3.179-14.964,8.273-29.147,15.288-42.529
					c7.005-13.379,16.084-26.282,27.239-38.705c11.141-12.426,24.998-25.325,41.571-38.706
					c11.469-9.557,24.372-18.637,38.708-27.238c14.335-8.601,28.344-16.245,42.05-22.936c13.694-6.692,26.43-12.095,38.229-16.245
					C3245.818,1824.679,3255.211,1822.603,3262.23,1822.603 M3102.629,1982.203c11.469-1.27,21.814-3.18,31.061-5.733
					c9.227-2.54,18.307-6.048,27.234-10.512c8.919-4.45,17.995-10.036,27.24-16.727c9.227-6.688,19.592-14.813,31.061-24.37
					c18.472-15.918,32.808-30.253,43.006-43.006c10.184-12.738,15.293-23.563,15.293-32.493c0-5.094-1.436-9.394-4.303-12.903
					c-2.868-3.492-6.213-5.255-10.033-5.255c-5.734,0-15.292,5.106-28.671,15.291c-13.383,10.2-28.196,22.788-44.442,37.748
					c-16.245,14.979-32.344,31.225-48.263,48.74C3125.879,1950.517,3112.813,1966.912,3102.629,1982.203 M3262.23,1808.603
					c-8.673,0-19.412,2.291-32.832,7.005c-12.325,4.335-25.692,10.013-39.736,16.876c-13.961,6.814-28.466,14.725-43.105,23.509
					c-14.851,8.91-28.438,18.471-40.385,28.419c-17.051,13.772-31.557,27.292-43.116,40.185
					c-11.87,13.219-21.703,27.203-29.218,41.557c-7.568,14.437-13.147,29.954-16.58,46.114c-3.375,15.82-5.088,34.006-5.088,54.038
					c0,23.875,4.984,41.735,15.238,54.602c10.875,13.645,26.856,20.563,47.503,20.563c29.768,0,62.2-13.178,96.398-39.168
					l0.056-0.043l0.056-0.043c5.775-4.48,11.629-9.33,17.398-14.415c5.816-5.142,12.707-12.024,21.079-21.054
					c8.783-9.494,19.876-21.581,32.091-34.966c12.63-13.827,29.661-32.683,53.595-59.336l0.061-0.067l0.06-0.068l13.378-15.293
					l9.937-11.358l-12.071-9.058l-7.643-5.734l-10.437-7.83l-8.545,9.859l-12.339,14.236c-22.91,25.459-40.87,45.343-53.384,59.103
					l-5.119,5.628c-10.197,11.213-18.252,20.069-24.005,26.359c-7.91,8.668-12.185,12.863-14.379,14.858
					c-3.145,2.864-6.938,6.205-11.61,10.221c-15.55,13.149-31.383,23.564-47.063,30.958c-14.911,7.042-28.174,10.61-39.424,10.61
					c-5.394,0-9.362-1.082-11.796-3.217c-1.738-1.515-2.875-3.214-2.875-6.675c0-3.721,1.659-13.171,12.771-34.665
					c8.478-16.384,19.985-35.127,34.247-55.782c18.03-0.818,33.646-2.589,46.498-5.275c14.936-3.128,29.823-8.552,44.253-16.121
					c14.239-7.452,27.837-16.745,40.404-27.613c12.352-10.678,23.399-22.069,32.833-33.856c9.52-11.896,17.313-24.034,23.167-36.079
					c6.326-13.045,9.53-25.55,9.53-37.179c0-10.488-3.786-20.076-10.95-27.727
					C3283.668,1812.774,3273.694,1808.603,3262.23,1808.603L3262.23,1808.603z M3135.854,1961.199
					c5.043-6.11,10.49-12.386,16.319-18.801c15.502-17.057,31.447-33.16,47.392-47.863c15.882-14.624,30.499-27.043,43.438-36.905
					c11.631-8.854,17.356-11.426,19.499-12.159c0.486,0.639,1.021,1.699,1.021,3.892c0,3.158-1.589,10.442-12.229,23.751
					c-9.593,11.996-23.429,25.813-41.122,41.067c-11.068,9.222-21.237,17.2-30.226,23.716c-8.631,6.245-17.137,11.475-25.273,15.534
					C3148.488,1956.523,3142.183,1959.125,3135.854,1961.199L3135.854,1961.199z"/>
			</g>
			<g>
				<path d="M3357.798,2132.559c-17.581,0-38.538-8.676-38.538-50.007c0-36.296,13.91-75.237,41.344-115.742
					c10.303-14.819,23.892-32.938,40.438-53.927c16.549-21.016,35.269-43.607,55.637-67.146
					c20.441-23.632,42.194-47.964,64.655-72.319c22.634-24.546,44.851-48.211,66.032-70.34
					c21.338-22.293,41.836-42.791,60.924-60.923c19.182-18.223,36.032-33.29,50.083-44.782
					c39.302-31.307,66.988-46.498,84.711-46.498c8.987,0,16.496,3.159,22.317,9.389c5.693,6.114,8.576,13.989,8.576,23.414
					c0,21.629-14.277,49.5-43.647,85.204c-28.229,34.321-66.841,71.158-114.761,109.489l-0.175,0.136
					c-4.818,3.609-11.17,8.568-19.419,15.16c0,0-18.951,15.165-23.891,19.112c-8.034,6.427-15.532,12.131-22.283,16.954
					c-7.208,5.152-11.438,8.215-13.716,9.93l-0.202,0.152l-0.213,0.137c-20.149,13.008-35.259,22.975-46.19,30.473
					c-11.384,7.804-18.531,12.567-21.853,14.564c-2.915,1.742-5.491,3.408-7.672,4.959c-1.921,1.369-3.662,2.843-5.317,4.501
					c-1.58,1.577-3.214,3.628-4.862,6.102c-1.997,2.992-4.965,7.117-8.826,12.266l-61.162,80.272
					c-13.811,18.824-25.525,34.872-34.82,47.697c-9.187,12.68-16.496,23.323-21.723,31.637c-5.166,8.197-8.84,14.912-10.921,19.966
					c-1.871,4.528-2.818,8.291-2.818,11.189c0,5.068,1.313,6.38,6.382,6.38c9.573,0,21.782-4.049,36.286-12.034
					c15.088-8.317,31.22-20.072,47.944-34.938c4.974-4.349,9.198-8.26,12.6-11.663c3.568-3.567,8.815-8.979,15.177-15.65
					c6.547-6.854,15.588-16.519,27.643-29.55c11.832-12.791,28.362-31.088,49.133-54.38l16.627-19.191l18.908,14.177l-18.355,20.974
					c-21.021,23.575-37.427,41.911-48.806,54.549c-11.433,12.712-20.645,22.73-27.378,29.776
					c-6.664,6.991-12.235,12.563-16.556,16.554c-4.372,4.024-9.456,8.292-15.122,12.695
					C3414.146,2115.785,3382.683,2132.559,3357.798,2132.559z M3785.951,1573.475c-4.707,0-16.069,3.119-39.281,24.007
					c-4.978,4.355-11.879,11.263-20.588,20.597c-8.646,9.257-18.008,19.398-28.623,31.009
					c-10.202,11.16-20.284,22.521-29.966,33.771c-9.733,11.295-17.849,21.16-24.125,29.326l-93.675,115.295
					c23.077-16.524,45.483-33.716,66.953-51.378c33.749-27.756,63.804-54.772,89.332-80.301c25.419-25.42,45.9-49.067,60.875-70.285
					c14.37-20.352,21.656-36.356,21.656-47.571C3788.51,1573.475,3787.654,1573.475,3785.951,1573.475z"/>
				<path fill="#FFFFFF" d="M3783.084,1557.874c7.004,0,12.738,2.39,17.203,7.168c4.449,4.778,6.69,10.988,6.69,18.635
					c0,19.756-14.022,46.681-42.054,80.757c-28.041,34.092-65.939,70.245-113.727,108.47c-5.105,3.825-11.631,8.933-19.592,15.294
					c-7.973,6.377-15.934,12.754-23.891,19.112c-7.975,6.379-15.292,11.947-21.982,16.727c-6.688,4.78-11.318,8.122-13.857,10.034
					c-19.758,12.754-35.211,22.938-46.354,30.581c-11.154,7.646-18.32,12.426-21.5,14.337c-3.195,1.91-5.9,3.674-8.123,5.255
					c-2.242,1.599-4.303,3.346-6.213,5.259c-1.914,1.91-3.824,4.3-5.734,7.167c-1.914,2.867-4.781,6.853-8.602,11.947
					l-61.167,80.279c-14.022,19.112-25.652,35.045-34.883,47.782c-9.241,12.754-16.573,23.418-21.98,32.018
					c-5.421,8.602-9.24,15.619-11.468,21.025c-2.238,5.419-3.346,10.035-3.346,13.856c0,8.931,4.45,13.38,13.382,13.38
					c10.824,0,24.041-4.302,39.662-12.902c15.604-8.602,32.016-20.547,49.219-35.838c5.09-4.45,9.393-8.438,12.9-11.947
					c3.493-3.492,8.601-8.75,15.292-15.769c6.688-7.001,15.918-16.874,27.715-29.626c11.781-12.737,28.192-30.896,49.219-54.475
					l12.422-14.337l7.648,5.734l-13.383,15.293c-21.023,23.577-37.271,41.737-48.74,54.475
					c-11.469,12.752-20.545,22.622-27.236,29.624c-6.691,7.02-12.108,12.426-16.245,16.248c-4.152,3.822-9.08,7.974-14.814,12.424
					c-38.229,33.137-68.811,49.697-91.748,49.697c-21.026,0-31.538-14.335-31.538-43.007c0-35.032,13.379-72.306,40.14-111.816
					c10.185-14.648,23.563-32.493,40.14-53.519c16.559-21.027,35.031-43.322,55.433-66.9c20.382-23.563,41.884-47.621,64.508-72.154
					c22.609-24.519,44.589-47.936,65.943-70.244c21.34-22.295,41.571-42.528,60.688-60.688
					c19.111-18.156,35.671-32.97,49.693-44.438C3740.391,1572.852,3767.151,1557.874,3783.084,1557.874 M3513.575,1860.83
					c37.589-24.849,73.427-51.278,107.519-79.323c34.078-28.027,64.029-54.952,89.834-80.757
					c25.804-25.805,46.353-49.531,61.645-71.199c15.289-21.652,22.938-38.854,22.938-51.607c0-7.646-3.195-11.469-9.559-11.469
					c-10.199,0-24.848,8.602-43.964,25.804c-5.104,4.466-12.108,11.47-21.023,21.024c-8.929,9.56-18.486,19.922-28.671,31.061
					c-10.199,11.156-20.235,22.46-30.105,33.928c-9.883,11.469-18.01,21.353-24.369,29.627L3513.575,1860.83 M3783.084,1543.874
					c-19.639,0-47.92,15.241-89.002,47.967l-0.07,0.056l-0.07,0.058c-14.185,11.602-31.166,26.784-50.473,45.126
					c-19.168,18.207-39.745,38.784-61.16,61.157c-21.211,22.159-43.458,45.856-66.121,70.435
					c-22.508,24.406-44.311,48.794-64.805,72.485c-20.437,23.619-39.226,46.296-55.843,67.398
					c-16.628,21.091-30.302,39.324-40.636,54.188l-0.049,0.07l-0.048,0.071c-28.232,41.684-42.548,81.945-42.548,119.667
					c0,17.554,3.466,30.813,10.595,40.534c5.511,7.515,16.046,16.473,34.943,16.473c26.609,0,59.529-17.296,100.632-52.871
					c5.76-4.48,10.944-8.837,15.412-12.949c4.447-4.109,10.127-9.786,16.897-16.889c6.771-7.086,16.031-17.157,27.512-29.922
					c11.378-12.637,27.792-30.981,48.78-54.52l0.043-0.049l0.043-0.049l13.383-15.293l9.944-11.363l-12.081-9.058l-7.648-5.734
					l-10.438-7.825l-8.542,9.859l-12.354,14.259c-20.707,23.22-37.187,41.46-48.982,54.214
					c-12.029,13.002-21.044,22.64-27.561,29.462c-6.33,6.639-11.537,12.009-15.067,15.538c-3.296,3.298-7.405,7.101-12.217,11.308
					l-0.043,0.038l-0.043,0.038c-16.336,14.521-32.04,25.974-46.677,34.041c-16.146,8.891-26.379,11.013-32.256,11.155
					c0.104-1.252,0.553-3.76,2.256-7.884c1.935-4.694,5.423-11.052,10.372-18.905c5.153-8.196,12.376-18.712,21.474-31.268
					c9.275-12.801,20.97-28.818,34.76-47.614l61.089-80.178l0.033-0.042l0.032-0.043c3.937-5.251,6.979-9.48,9.044-12.573
					c1.399-2.101,2.735-3.789,3.979-5.03c1.396-1.397,2.846-2.625,4.451-3.77c2.019-1.436,4.438-2.999,7.18-4.638
					c3.469-2.085,10.732-6.923,22.232-14.807c10.881-7.463,25.937-17.396,46.03-30.366l0.425-0.273l0.404-0.305
					c2.232-1.681,6.42-4.712,13.577-9.828c6.851-4.894,14.45-10.676,22.586-17.184c4.93-3.939,9.866-7.891,14.807-11.844
					l9.083-7.269c8.188-6.542,14.483-11.457,19.242-15.022l0.178-0.133l0.173-0.139c48.298-38.633,87.256-75.813,115.794-110.509
					c30.442-37.008,45.241-66.333,45.241-89.65c0-11.253-3.514-20.732-10.444-28.175
					C3803.42,1547.889,3793.934,1543.874,3783.084,1543.874L3783.084,1543.874z M3591,1787.74l57.684-70.994l0.119-0.146l0.116-0.15
					c6.197-8.063,14.229-17.827,23.874-29.02c9.643-11.202,19.678-22.512,29.833-33.62c10.599-11.592,19.944-21.716,28.569-30.95
					c8.553-9.168,15.284-15.91,20.01-20.044l0.074-0.064l0.072-0.065c15.373-13.833,24.732-19.073,29.83-21.043
					c-1.107,6.82-5.5,19.232-20.046,39.833c-14.746,20.896-34.969,44.235-60.107,69.375c-25.368,25.368-55.254,52.231-88.827,79.844
					C3605.229,1776.429,3598.16,1782.112,3591,1787.74L3591,1787.74z"/>
			</g>
			<g>
				<path d="M4104.182,2143.07c-25.899,0-49.925-2.639-71.411-7.841c-21.688-5.254-40.569-12.954-56.117-22.887
					c-15.802-10.079-28.275-22.401-37.068-36.621c-8.938-14.429-13.472-30.782-13.472-48.601c0-14.888,4.017-27.727,11.938-38.16
					c8.369-11.03,19.248-16.625,32.333-16.625c10.151,0,18.566,3.26,25.013,9.688c6.445,6.464,9.706,14.879,9.706,25.025
					c0,13.807-7.739,26.334-23.002,37.235l-0.228,0.163l-9.373,5.622c-4.43,3.647-6.585,7.399-6.585,11.456
					c0,5.698,3.328,11.909,9.893,18.461c7.357,7.372,17.149,13.982,29.115,19.656c12.2,5.807,26.207,10.627,41.64,14.331
					c15.317,3.676,31.167,5.54,47.107,5.54c47.85,0,94.649-9.929,139.099-29.511c44.58-19.644,87.127-48.911,126.458-86.99
					c12.035-12.035,22.899-23.219,32.292-33.242c9.348-9.959,19.324-21.838,29.656-35.312c10.26-13.36,22.412-30.149,36.122-49.906
					c11.642-16.784,26.052-37.891,42.932-62.881c-11.813,1.82-22.941,3.187-33.23,4.078c-14.67,1.287-29.667,1.939-44.567,1.939
					c-34.25,0-65.728-3.777-93.559-11.228c-27.966-7.471-52.599-18.062-73.208-31.479c-20.877-13.576-37.211-30.1-48.545-49.109
					c-11.435-19.155-17.233-40.779-17.233-64.271c0-33.189,10.567-64.786,31.41-93.912c20.552-28.701,49.082-53.955,84.8-75.062
					c35.446-20.94,77.373-37.753,124.615-49.971c47.219-12.197,98.451-18.381,152.277-18.381c22.41,0,43.933,1.306,63.97,3.88
					c20.048,2.594,38.766,6.537,55.638,11.72l7.111,2.185l-7.607,20.281l-5.918-1.291c-20.05-4.373-38.894-7.383-56.009-8.946
					c-17.354-1.566-35.632-2.361-54.318-2.361c-50.105,0-97.57,5.87-141.077,17.447c-43.408,11.562-81.834,27.682-114.209,47.912
					c-32.159,20.101-57.842,43.729-76.335,70.225c-18.188,26.08-27.412,54.315-27.412,83.919c0,19.004,4.642,36.268,13.795,51.313
					c9.253,15.23,22.791,28.438,40.238,39.262c17.755,11.023,39.551,19.573,64.785,25.413c25.449,5.905,54.178,8.899,85.393,8.899
					c18.144,0,33.941-0.787,46.954-2.341c12.19-1.441,25.431-4.177,39.401-8.137c29.538-45.074,61.056-87.489,93.704-126.099
					c33.168-39.24,66.359-73.723,98.649-102.488c32.362-28.849,63.477-51.808,92.475-68.239
					c29.604-16.775,56.166-25.282,78.948-25.282c13.958,0,25.912,4.869,35.531,14.473c9.608,9.63,14.476,21.582,14.476,35.534
					c0,25.58-11.522,54.911-34.248,87.177c-22.287,31.665-53.186,62.419-91.834,91.406c-28.853,21.806-59.614,40.848-91.411,56.582
					c-31.112,15.407-68.69,30.218-111.729,44.036c-21.046,34.603-40.422,64.969-57.611,90.285
					c-17.643,25.973-34.989,49.154-51.558,68.901c-16.73,19.941-33.713,37.411-50.475,51.923
					c-16.799,14.526-35.041,28.37-54.224,41.148l-0.122,0.08c-21.2,13.494-43.966,26.017-67.663,37.219
					c-23.733,11.227-48.316,20.831-73.065,28.547c-24.642,7.681-49.377,13.701-73.52,17.896
					C4149.514,2140.946,4126.121,2143.07,4104.182,2143.07z M4878.299,1494.15c-13.195,0-29.917,6.531-49.7,19.414
					c-20.538,13.394-42.966,32.519-66.658,56.839c-11.375,11.376-22.151,23.261-32.096,35.39
					c-10.006,12.192-20.834,26.526-32.187,42.607c-11.398,16.147-24.19,35.496-38.021,57.507
					c-11.377,18.1-24.421,39.468-38.881,63.692c73.837-26.652,137.61-63.891,189.785-110.847
					c63.768-58.194,96.118-104.687,96.118-138.151C4906.66,1502.309,4897.913,1494.15,4878.299,1494.15z"/>
				<path fill="#FFFFFF" d="M4582.989,1441.278c22.293,0,43.319,1.284,63.077,3.823c19.738,2.554,37.898,6.376,54.475,11.468
					l-2.867,7.645c-20.402-4.45-39.349-7.479-56.863-9.078c-17.533-1.583-35.842-2.391-54.955-2.391
					c-50.98,0-98.6,5.9-142.877,17.683c-44.291,11.797-82.998,28.044-116.119,48.74c-33.136,20.712-59.252,44.77-78.365,72.155
					c-19.111,27.402-28.672,56.715-28.672,87.925c0,20.396,4.93,38.704,14.814,54.951c9.872,16.248,24.042,30.104,42.529,41.571
					c18.473,11.47,40.766,20.237,66.896,26.284c26.12,6.062,55.104,9.08,86.971,9.08c18.472,0,34.404-0.793,47.783-2.39
					c13.382-1.583,27.719-4.616,43.007-9.08c29.94-45.874,61.479-88.401,94.614-127.587c33.121-39.184,65.777-73.11,97.961-101.781
					c32.164-28.671,62.598-51.129,91.27-67.375c28.67-16.247,53.83-24.373,75.497-24.373c12.099,0,22.298,4.152,30.585,12.427
					c8.27,8.287,12.422,18.486,12.422,30.58c0,24.222-10.99,51.938-32.971,83.146c-21.979,31.226-52.086,61.167-90.312,89.837
					c-28.671,21.668-58.776,40.301-90.315,55.908c-31.539,15.618-69.289,30.433-113.249,44.439
					c-21.667,35.69-41.259,66.42-58.778,92.223c-17.529,25.806-34.567,48.596-51.129,68.335
					c-16.574,19.755-33.136,36.794-49.694,51.13c-16.577,14.335-34.405,27.88-53.522,40.615
					c-21.022,13.381-43.334,25.657-66.896,36.796c-23.581,11.154-47.637,20.548-72.156,28.192
					c-24.534,7.646-48.74,13.53-72.635,17.682c-23.891,4.137-46.68,6.211-68.332,6.211c-25.488,0-48.741-2.554-69.764-7.645
					c-21.027-5.094-39.035-12.425-53.996-21.982c-14.98-9.555-26.61-21.024-34.884-34.403c-8.288-13.38-12.425-28.343-12.425-44.919
					c0-13.379,3.495-24.684,10.514-33.927c7.001-9.228,15.918-13.858,26.758-13.858c8.274,0,14.965,2.554,20.069,7.645
					c5.095,5.109,7.649,11.798,7.649,20.069c0,11.47-6.691,21.983-20.07,31.539l-9.559,5.733
					c-6.379,5.109-9.559,10.844-9.559,17.204c0,7.646,3.972,15.455,11.947,23.415c7.961,7.977,18.307,14.979,31.061,21.027
					c12.737,6.062,27.073,10.988,43.006,14.813c15.918,3.82,32.167,5.733,48.741,5.733c49.053,0,96.362-10.034,141.921-30.104
					c45.546-20.069,88.4-49.532,128.541-88.402c12.098-12.097,22.936-23.249,32.494-33.449
					c9.559-10.184,19.592-22.131,30.104-35.839c10.515-13.692,22.608-30.419,36.318-50.175
					c13.692-19.741,31.061-45.232,52.087-76.456c-17.847,3.196-34.093,5.419-48.741,6.688c-14.666,1.286-29.314,1.913-43.963,1.913
					c-33.78,0-64.361-3.658-91.748-10.989c-27.4-7.319-51.129-17.518-71.199-30.584c-20.07-13.052-35.525-28.67-46.352-46.828
					c-10.84-18.158-16.246-38.379-16.246-60.686c0-31.854,10.033-61.792,30.103-89.839c20.069-28.027,47.622-52.398,82.669-73.108
					c35.034-20.697,75.979-37.109,122.807-49.22C4479.295,1447.34,4529.471,1441.278,4582.989,1441.278 M4604.969,1782.463
					c82.818-27.386,152.914-66.9,210.256-118.507c65.613-59.879,98.436-107.665,98.436-143.354
					c0-22.295-11.795-33.451-35.361-33.451c-14.664,0-32.492,6.855-53.52,20.548c-21.022,13.71-43.646,32.972-67.853,57.82
					c-11.47,11.47-22.312,23.415-32.495,35.837c-10.199,12.427-21.023,26.762-32.492,43.008
					c-11.469,16.247-24.221,35.525-38.229,57.82C4639.688,1724.492,4623.442,1751.252,4604.969,1782.463 M4582.989,1427.278
					c-54.416,0-106.237,6.259-154.025,18.603c-47.883,12.384-90.417,29.448-126.427,50.722
					c-36.563,21.605-65.81,47.516-86.931,77.012c-21.712,30.343-32.72,63.31-32.72,97.989c0,24.771,6.132,47.604,18.226,67.861
					c11.882,19.931,28.955,37.222,50.739,51.389c21.225,13.817,46.533,24.711,75.219,32.373
					c28.414,7.606,60.501,11.464,95.361,11.464c15.104,0,30.306-0.661,45.186-1.967c5.748-0.498,11.753-1.142,17.988-1.929
					c-13.112,19.346-24.521,36.019-34.061,49.771c-13.645,19.661-25.73,36.359-35.918,49.626
					c-10.197,13.298-20.021,24.998-29.208,34.785c-9.337,9.964-20.137,21.081-32.107,33.052
					c-38.72,37.478-80.563,66.269-124.365,85.569c-43.554,19.187-89.403,28.916-136.275,28.916c-15.392,0-30.691-1.799-45.474-5.347
					c-14.959-3.591-28.504-8.247-40.258-13.841c-11.254-5.337-20.389-11.483-27.167-18.275c-3.595-3.588-7.856-8.827-7.856-13.525
					c0-0.661,0-2.603,3.659-5.737l8.659-5.194l0.48-0.288l0.455-0.325c17.208-12.291,25.934-26.735,25.934-42.932
					c0-11.896-4.059-22.255-11.735-29.954c-7.724-7.703-18.082-11.76-29.983-11.76c-15.174,0-28.283,6.707-37.911,19.396
					c-8.864,11.674-13.36,25.938-13.36,42.389c0,19.141,4.887,36.734,14.523,52.291c9.346,15.113,22.556,28.183,39.257,38.835
					c16.192,10.345,35.786,18.349,58.229,23.785c22.025,5.334,46.606,8.038,73.06,8.038c22.339,0,46.133-2.158,70.721-6.416
					c24.447-4.248,49.48-10.34,74.412-18.111c25.061-7.813,49.949-17.537,73.977-28.902c23.959-11.326,46.982-23.99,68.428-37.641
					l0.123-0.078l0.121-0.081c19.425-12.94,37.902-26.962,54.918-41.677c17.049-14.76,34.294-32.496,51.263-52.722
					c16.72-19.929,34.21-43.3,51.984-69.467c16.887-24.87,35.865-54.577,56.446-88.354c42.332-13.696,79.392-28.365,110.213-43.628
					c32.181-15.925,63.313-35.194,92.53-57.275c39.225-29.423,70.626-60.698,93.332-92.957
					c11.571-16.43,20.419-32.274,26.294-47.092c6.123-15.442,9.229-30.284,9.229-44.113c0-15.874-5.556-29.489-16.512-40.47
					c-10.997-10.979-24.615-16.537-40.495-16.537c-24.007,0-51.729,8.813-82.399,26.193c-29.43,16.675-60.949,39.925-93.683,69.104
					c-32.533,28.982-65.956,63.703-99.337,103.195c-32.299,38.195-63.491,80.086-92.768,124.579
					c-12.692,3.484-24.716,5.91-35.807,7.222c-12.752,1.522-28.271,2.293-46.139,2.293c-30.683,0-58.879-2.934-83.806-8.718
					c-24.493-5.668-45.577-13.924-62.677-24.54c-16.509-10.241-29.275-22.671-37.949-36.947
					c-8.601-14.136-12.779-29.73-12.779-47.682c0-28.145,8.8-55.031,26.155-79.916c17.946-25.715,42.946-48.693,74.302-68.292
					c31.782-19.859,69.566-35.701,112.303-47.084c42.916-11.42,89.775-17.211,139.273-17.211c18.477,0,36.543,0.785,53.696,2.334
					c16.813,1.535,35.37,4.501,55.139,8.813l11.837,2.582l4.255-11.344l2.867-7.645l5.225-13.931l-14.222-4.369
					c-17.25-5.299-36.356-9.325-56.789-11.97C4627.521,1428.604,4605.697,1427.278,4582.989,1427.278L4582.989,1427.278z
					 M4637.116,1755.937c10.36-17.179,19.879-32.671,28.447-46.302c13.766-21.91,26.487-41.152,37.813-57.198
					c11.256-15.944,21.981-30.143,31.877-42.199c9.802-11.957,20.423-23.67,31.572-34.819l0.064-0.064l0.064-0.066
					c23.332-23.951,45.36-42.746,65.472-55.862c18.619-12.124,34.056-18.274,45.872-18.274c5.521,0,12.935,0.787,16.897,4.535
					c2.962,2.803,4.464,7.82,4.464,14.916c0,14.877-7.453,33.274-22.153,54.681c-15.718,22.888-39.837,49.233-71.686,78.302
					C4758.791,1695.901,4702.17,1730.237,4637.116,1755.937L4637.116,1755.937z"/>
			</g>
			<g>
				<path d="M4714.865,2134.469c-16.522,0-30.572-8.975-41.757-26.675c-10.545-16.648-15.894-36.718-15.894-59.646
					c0-15.825,1.678-30.545,4.987-43.752c3.323-13.318,8.716-26.47,16.024-39.081c7.243-12.51,16.733-25.006,28.206-37.142
					c11.271-11.919,25.178-24.519,41.332-37.449c12.933-10.34,27.005-20.157,41.829-29.183c14.863-9.046,29.9-17.056,44.694-23.807
					c14.904-6.804,29.383-12.23,43.033-16.129c13.943-3.984,26.166-6.004,36.328-6.004c30.207,0,34.718,19.355,34.718,30.893
					c0,3.423-0.179,6.605-0.531,9.459c-0.364,2.835-1.517,9.105-3.429,18.672l-1.125,5.628h-8.827
					c2.258,3.95,3.396,8.323,3.396,13.069c0,6.871-2.572,15.527-7.862,26.464c-4.864,10.063-11.266,21.391-19.025,33.664
					c-7.694,12.192-16.683,24.779-26.713,37.406c-7.883,9.905-15.932,19.395-24.01,28.307c4.098-0.016,8.779-1.116,13.896-3.272
					c5.399-2.267,12.067-6.591,19.827-12.854c8.202-6.636,18.059-15.223,29.291-25.516c11.356-10.412,24.722-23.938,39.724-40.205
					l4.576-4.961l17.203,14.744l-4.691,5.325c-23.774,26.984-46.296,48.68-66.939,64.485
					c-21.842,16.726-39.491,24.856-53.954,24.856c-5.604,0-10.691-1.205-15.199-3.591c-6.52,6.961-12.266,12.931-17.122,17.788
					l-14.337,14.335c-3.822,3.824-7.447,7.284-10.773,10.283c-3.45,3.097-6.641,5.811-9.76,8.303
					c-14.887,12.935-29.486,23.751-43.396,32.151C4733.432,2130.2,4722.716,2134.469,4714.865,2134.469z M4917.474,1839.158
					c-10.029,0-24.004,5.88-41.533,17.475c-18.324,12.109-40.027,30.021-64.511,53.237c-16.914,16.3-31.015,31.504-41.867,45.15
					c-10.893,13.695-21.463,29.475-31.416,46.9c-7.767,13.743-14.524,25.649-20.069,35.361c-4.923,8.607-8.639,16.028-11.047,22.062
					c-2.391,5.974-4.042,11.057-4.911,15.115c-0.849,3.962-1.279,8.613-1.279,13.828c0,6.819,1.74,12.492,5.321,17.344
					c4.578,6.237,8.404,6.237,9.661,6.237c0.381-0.027,4.659-0.578,21.135-10.882c12.395-7.743,24.665-16.711,36.476-26.656
					l0.185-0.15c8.603-6.758,16.687-14.219,24.026-22.177c7.2-7.792,17.501-19.59,30.64-35.092v-8.903
					c0-12.257,3.044-26.588,9.047-42.598c5.852-15.603,12.935-30.591,21.053-44.547c8.166-14.053,16.977-26.345,26.184-36.532
					c10.403-11.52,19.605-17.12,28.129-17.12c3.244,0,6.325,0.593,9.174,1.748c2.41-9.491,2.939-14.321,2.939-16.73
					C4924.809,1839.158,4920.037,1839.158,4917.474,1839.158z"/>
				<path fill="#FFFFFF" d="M4913.649,1822.603c18.473,0,27.718,7.975,27.718,23.893c0,3.196-0.165,6.063-0.479,8.601
					c-0.328,2.552-1.436,8.602-3.346,18.158h-9.558c2.54-9.557,3.823-16.559,3.823-21.025c0-13.38-4.777-20.07-14.335-20.07
					c-11.469,0-26.61,6.211-45.396,18.637c-18.801,12.425-40.617,30.434-65.465,53.996c-17.203,16.577-31.391,31.866-42.529,45.873
					c-11.154,14.023-21.832,29.956-32.016,47.785c-8.289,14.666-14.98,26.447-20.07,35.362c-5.107,8.93-8.93,16.575-11.469,22.938
					c-2.553,6.377-4.303,11.796-5.255,16.245c-0.957,4.465-1.435,9.558-1.435,15.293c0,8.288,2.226,15.453,6.689,21.501
					c4.45,6.063,9.56,9.08,15.293,9.08c3.82,0,12.094-3.972,24.847-11.947c12.739-7.958,25.16-17.036,37.272-27.236
					c8.915-7.003,17.203-14.647,24.848-22.936c7.645-8.273,18.473-20.698,32.494-37.272v-11.469c0-11.47,2.867-24.848,8.602-40.14
					c5.734-15.291,12.574-29.775,20.549-43.485c7.957-13.692,16.393-25.474,25.326-35.358c8.914-9.87,16.558-14.813,22.936-14.813
					c5.091,0,9.393,1.91,12.901,5.733c3.497,3.823,5.255,8.287,5.255,13.379c0,5.733-2.389,13.544-7.164,23.415
					c-4.778,9.887-10.992,20.875-18.641,32.972c-7.643,12.111-16.41,24.372-26.277,36.794
					c-9.887,12.424-19.924,24.058-30.107,34.883c5.096,3.196,8.914,4.777,11.469,4.777c5.094,0,10.662-1.268,16.725-3.821
					c6.047-2.539,13.217-7.167,21.506-13.857c8.27-6.69,18.154-15.291,29.624-25.803c11.468-10.514,24.851-24.042,40.14-40.619
					l6.69,5.734c-23.577,26.761-45.561,47.95-65.942,63.555c-20.398,15.62-36.961,23.415-49.699,23.415
					c-6.375,0-11.795-1.913-16.246-5.734c-8.287,8.931-15.292,16.248-21.025,21.982c-5.735,5.733-10.512,10.511-14.336,14.334
					c-3.82,3.822-7.332,7.168-10.512,10.035c-3.195,2.867-6.375,5.586-9.555,8.123c-14.667,12.752-28.836,23.266-42.532,31.537
					c-13.706,8.287-23.743,12.424-30.103,12.424c-14.022,0-25.969-7.794-35.84-23.414c-9.883-15.604-14.811-34.24-14.811-55.906
					c0-15.294,1.582-29.299,4.777-42.051c3.179-12.738,8.273-25.164,15.291-37.272c7.004-12.097,16.08-24.042,27.236-35.842
					c11.141-11.781,24.686-24.04,40.619-36.794c12.738-10.184,26.43-19.739,41.096-28.669c14.648-8.915,29.297-16.726,43.96-23.417
					c14.648-6.687,28.672-11.945,42.05-15.767C4892.626,1824.514,4904.096,1822.603,4913.649,1822.603 M4913.649,1808.603
					c-10.965,0-23.478,2.052-38.251,6.273c-13.985,3.994-28.795,9.543-44.018,16.491c-15.044,6.865-30.327,15.006-45.425,24.194
					c-15.08,9.182-29.398,19.171-42.56,29.692c-16.412,13.138-30.558,25.958-42.049,38.11c-11.847,12.53-21.664,25.465-29.18,38.446
					c-7.636,13.174-13.275,26.936-16.76,40.897c-3.445,13.749-5.193,29.042-5.193,45.44c0,24.275,5.714,45.604,16.983,63.397
					c15.628,24.729,34.548,29.923,47.667,29.923c9.182,0,21.049-4.59,37.346-14.443c14.213-8.583,29.102-19.605,44.254-32.76
					c3.187-2.552,6.441-5.322,9.939-8.461c3.441-3.103,7.155-6.647,11.064-10.558l5.025-5.025l9.306-9.305
					c4.052-4.052,8.705-8.859,13.897-14.354c4.171,1.467,8.673,2.205,13.477,2.205c16.06,0,35.101-8.603,58.211-26.3
					c21.003-16.08,43.86-38.089,67.936-65.415l9.382-10.648l-10.776-9.236l-6.689-5.734l-10.25-8.785l-9.152,9.924
					c-14.87,16.122-28.096,29.51-39.31,39.791c-11.124,10.195-20.871,18.688-28.969,25.238c-1.666,1.345-3.223,2.549-4.675,3.628
					c1.621-1.984,3.236-3.988,4.844-6.008c10.195-12.835,19.331-25.631,27.162-38.04c7.895-12.486,14.426-24.047,19.406-34.352
					c5.758-11.903,8.559-21.557,8.559-29.507c0-2.065-0.18-4.093-0.535-6.069h4.705l2.25-11.256
					c1.971-9.861,3.117-16.115,3.503-19.117l0.005-0.034l0.004-0.034c0.388-3.138,0.584-6.608,0.584-10.317
					c0-15.17-6.411-23.882-11.79-28.519C4936.362,1811.756,4926.293,1808.603,4913.649,1808.603L4913.649,1808.603z
					 M4816.287,1914.911c24.171-22.918,45.538-40.56,63.51-52.437c20.027-13.247,31.337-16.213,37.356-16.313
					c0.288,0.969,0.655,2.837,0.655,6.067c0,0.968-0.146,3.344-1.148,8.218c-1.297-0.156-2.62-0.235-3.965-0.235
					c-10.617,0-21.518,6.355-33.325,19.43c-9.53,10.545-18.629,23.232-27.041,37.708c-8.312,14.29-15.564,29.635-21.553,45.604
					c-6.3,16.798-9.493,31.957-9.493,45.056v6.334c-12.283,14.463-21.952,25.521-28.777,32.906
					c-7.095,7.693-14.902,14.898-23.213,21.427l-0.188,0.147l-0.182,0.154c-11.559,9.732-23.561,18.504-35.672,26.07
					c-11.448,7.16-16.319,9.18-17.938,9.728c-1.357-0.47-2.985-2.571-3.499-3.27c-2.683-3.635-3.976-7.948-3.976-13.218
					c0-4.723,0.378-8.881,1.123-12.358c0.787-3.677,2.322-8.378,4.563-13.977c2.293-5.745,5.865-12.869,10.624-21.189
					c5.546-9.714,12.304-21.62,20.09-35.396c9.771-17.106,20.135-32.578,30.801-45.988
					C4785.694,1945.981,4799.57,1931.021,4816.287,1914.911L4816.287,1914.911z"/>
			</g>
			<g>
				<path d="M5035.018,2132.559c-17.579,0-38.535-8.676-38.535-50.007c0-36.295,13.909-75.235,41.341-115.741
					c10.307-14.82,23.895-32.94,40.438-53.927c16.549-21.012,35.268-43.604,55.635-67.147
					c20.408-23.593,42.163-47.925,64.661-72.319c22.569-24.48,44.784-48.146,66.028-70.34c21.315-22.27,41.814-42.767,60.926-60.923
					c19.17-18.213,36.021-33.28,50.084-44.782c39.302-31.307,66.988-46.498,84.712-46.498c8.981,0,16.489,3.158,22.314,9.387
					c5.697,6.123,8.579,13.997,8.579,23.416c0,21.628-14.277,49.498-43.647,85.204c-28.24,34.328-66.852,71.166-114.762,109.489
					l-0.177,0.137c-4.775,3.576-11.127,8.535-19.417,15.159c0,0-19.469,15.579-23.89,19.112
					c-8.051,6.436-15.549,12.14-22.283,16.953c-7.189,5.138-11.42,8.201-13.717,9.931l-0.202,0.152l-0.212,0.137
					c-20.235,13.063-35.344,23.03-46.188,30.472c-11.389,7.807-18.537,12.57-21.855,14.565c-2.907,1.737-5.486,3.404-7.681,4.962
					c-1.913,1.367-3.657,2.844-5.315,4.502c-1.572,1.572-3.208,3.625-4.86,6.102c-1.997,2.996-4.968,7.124-8.826,12.265
					l-61.155,80.27c-14.268,19.446-25.657,35.047-34.821,47.696c-9.342,12.892-16.447,23.239-21.721,31.635
					c-5.182,8.22-8.854,14.934-10.922,19.964c-1.848,4.463-2.82,8.329-2.82,11.194c0,5.068,1.312,6.38,6.379,6.38
					c9.574,0,21.782-4.049,36.284-12.034c15.087-8.315,31.219-20.07,47.946-34.938c4.943-4.318,9.168-8.23,12.603-11.665
					c3.605-3.603,8.851-9.013,15.171-15.646c6.59-6.896,15.63-16.559,27.644-29.551c11.775-12.726,28.308-31.021,49.138-54.381
					l16.63-19.192l18.898,14.179l-18.348,20.973c-21.519,24.13-37.469,41.957-48.807,54.549
					c-11.448,12.729-20.662,22.749-27.382,29.777c-6.638,6.967-12.21,12.539-16.555,16.553c-4.372,4.025-9.456,8.293-15.122,12.695
					C5091.371,2115.781,5059.904,2132.559,5035.018,2132.559z M5463.17,1573.475c-4.705,0-16.064,3.119-39.276,24.007l-0.075,0.067
					c-4.892,4.275-11.793,11.183-20.513,20.529c-8.669,9.28-18.298,19.712-28.622,31.008c-10.145,11.093-20.228,22.455-29.97,33.771
					c-9.698,11.254-17.815,21.12-24.128,29.328l-93.668,115.29c23.087-16.531,45.487-33.719,66.947-51.374
					c33.752-27.756,63.809-54.772,89.335-80.301c25.4-25.4,45.883-49.049,60.877-70.287c14.369-20.352,21.655-36.356,21.655-47.57
					C5465.732,1573.475,5464.876,1573.475,5463.17,1573.475z"/>
				<path fill="#FFFFFF" d="M5460.308,1557.874c6.999,0,12.733,2.39,17.202,7.168c4.445,4.778,6.691,10.988,6.691,18.635
					c0,19.756-14.023,46.681-42.054,80.757c-28.045,34.092-65.94,70.245-113.728,108.47c-5.108,3.825-11.631,8.933-19.592,15.294
					c-7.976,6.377-15.933,12.754-23.89,19.112c-7.979,6.379-15.296,11.947-21.983,16.727c-6.688,4.78-11.318,8.122-13.857,10.034
					c-19.757,12.754-35.215,22.938-46.353,30.581c-11.155,7.646-18.321,12.426-21.501,14.337c-3.195,1.91-5.9,3.674-8.127,5.255
					c-2.237,1.599-4.299,3.346-6.212,5.259c-1.911,1.91-3.821,4.3-5.734,7.167c-1.911,2.867-4.777,6.853-8.602,11.947
					l-61.162,80.279c-14.023,19.112-25.657,35.045-34.885,47.782c-9.242,12.754-16.577,23.418-21.979,32.018
					c-5.422,8.602-9.246,15.619-11.469,21.025c-2.242,5.419-3.346,10.035-3.346,13.856c0,8.931,4.45,13.38,13.379,13.38
					c10.828,0,24.041-4.302,39.66-12.902c15.607-8.602,32.018-20.547,49.221-35.838c5.094-4.45,9.393-8.438,12.902-11.947
					c3.494-3.492,8.603-8.75,15.289-15.769c6.691-7.001,15.923-16.874,27.715-29.626c11.785-12.737,28.195-30.896,49.223-54.475
					l12.423-14.337l7.644,5.734l-13.379,15.293c-21.025,23.577-37.271,41.737-48.74,54.475
					c-11.469,12.752-20.545,22.622-27.239,29.624c-6.688,7.02-12.108,12.426-16.245,16.248c-4.152,3.822-9.08,7.974-14.814,12.424
					c-38.227,33.137-68.813,49.697-91.748,49.697c-21.023,0-31.535-14.335-31.535-43.007c0-35.032,13.379-72.306,40.137-111.816
					c10.188-14.648,23.566-32.493,40.14-53.519c16.562-21.027,35.034-43.322,55.432-66.9c20.382-23.563,41.888-47.621,64.513-72.154
					c22.605-24.519,44.586-47.936,65.939-70.244c21.34-22.295,41.574-42.528,60.69-60.688c19.109-18.156,35.671-32.97,49.694-44.438
					C5417.613,1572.852,5444.371,1557.874,5460.308,1557.874 M5190.799,1860.83c37.584-24.849,73.426-51.278,107.514-79.323
					c34.083-28.027,64.035-54.952,89.838-80.757c25.805-25.805,46.348-49.531,61.646-71.199
					c15.288-21.652,22.937-38.854,22.937-51.607c0-7.646-3.195-11.469-9.563-11.469c-10.195,0-24.843,8.602-43.959,25.804
					c-5.108,4.466-12.109,11.47-21.023,21.024c-8.93,9.56-18.49,19.922-28.671,31.061c-10.202,11.156-20.235,22.46-30.107,33.928
					c-9.885,11.469-18.009,21.353-24.372,29.627L5190.799,1860.83 M5460.308,1543.874c-19.64,0-47.921,15.241-89.003,47.967
					l-0.07,0.056l-0.07,0.058c-14.197,11.61-31.18,26.794-50.475,45.126c-19.19,18.23-39.768,38.808-61.16,61.157
					c-21.273,22.225-43.52,45.923-66.119,70.435c-22.546,24.448-44.352,48.836-64.809,72.485
					c-20.436,23.624-39.225,46.3-55.841,67.397c-16.626,21.092-30.299,39.324-40.636,54.188l-0.049,0.071l-0.049,0.071
					c-28.23,41.686-42.545,81.947-42.545,119.667c0,17.554,3.465,30.813,10.594,40.534c5.511,7.515,16.045,16.473,34.941,16.473
					c26.612,0,59.532-17.295,100.632-52.871c5.76-4.48,10.944-8.836,15.412-12.949c4.473-4.133,10.151-9.81,16.899-16.891
					c6.752-7.063,16.015-17.136,27.513-29.92c11.339-12.594,27.297-30.429,48.78-54.519l0.044-0.05l0.044-0.051l13.379-15.293
					l9.938-11.359l-12.073-9.057l-7.644-5.734l-10.438-7.831l-8.545,9.861l-12.357,14.263
					c-20.771,23.291-37.252,41.529-48.983,54.209c-11.991,12.967-21.005,22.603-27.56,29.461
					c-6.297,6.609-11.501,11.978-15.064,15.539c-3.327,3.327-7.437,7.13-12.217,11.307l-0.045,0.039l-0.045,0.04
					c-16.338,14.522-32.043,25.976-46.678,34.04c-16.144,8.891-26.374,11.013-32.253,11.156c0.104-1.254,0.552-3.763,2.254-7.876
					c1.927-4.688,5.414-11.041,10.376-18.913c5.131-8.167,12.352-18.681,21.473-31.268c9.145-12.624,20.516-28.198,34.762-47.614
					l61.084-80.178l0.031-0.04l0.029-0.04c3.937-5.243,6.982-9.478,9.055-12.587c1.395-2.09,2.735-3.783,3.982-5.029
					c1.385-1.386,2.841-2.617,4.453-3.77c2.013-1.43,4.437-2.995,7.172-4.63c3.467-2.083,10.729-6.921,22.232-14.806
					c10.797-7.409,25.852-17.341,46.03-30.367l0.425-0.274l0.404-0.304c2.25-1.694,6.438-4.726,13.576-9.828
					c6.838-4.886,14.437-10.667,22.585-17.181c4.419-3.532,8.841-7.071,13.267-10.613c3.539-2.832,7.079-5.666,10.623-8.5
					c8.228-6.574,14.522-11.488,19.241-15.022l0.179-0.134l0.175-0.14c48.288-38.625,87.247-75.806,115.794-110.508
					c30.443-37.01,45.242-66.335,45.242-89.651c0-11.245-3.513-20.724-10.441-28.171
					C5480.635,1547.887,5471.15,1543.874,5460.308,1543.874L5460.308,1543.874z M5268.223,1787.739l57.68-70.993l0.119-0.146
					l0.113-0.148c6.232-8.104,14.267-17.868,23.879-29.021c9.701-11.269,19.736-22.577,29.834-33.619
					c10.312-11.282,19.924-21.694,28.57-30.952c8.565-9.181,15.295-15.921,20.008-20.041l0.075-0.066l0.075-0.066
					c15.375-13.836,24.732-19.075,29.829-21.044c-1.108,6.82-5.501,19.233-20.046,39.834
					c-14.767,20.915-34.989,44.256-60.108,69.375c-25.367,25.369-55.254,52.232-88.831,79.843
					C5282.452,1776.427,5275.382,1782.111,5268.223,1787.739L5268.223,1787.739z"/>
			</g>
		</g>
	</g>
</g>
</svg>
